<svg width="139" height="33" viewBox="0 0 139 33" fill="none" xmlns="http://www.w3.org/2000/svg">
<path d="M42.712 12.608C42.04 12.24 41.352 11.936 40.648 11.696C39.96 11.456 39.312 11.336 38.704 11.336C37.952 11.336 37.36 11.488 36.928 11.792C36.496 12.096 36.28 12.552 36.28 13.16C36.28 13.576 36.44 13.952 36.76 14.288C37.096 14.608 37.52 14.896 38.032 15.152C38.56 15.408 39.104 15.64 39.664 15.848C40.352 16.104 41.016 16.432 41.656 16.832C42.296 17.216 42.824 17.752 43.24 18.44C43.656 19.112 43.864 20.008 43.864 21.128C43.864 22.024 43.632 22.856 43.168 23.624C42.704 24.392 42.024 25.016 41.128 25.496C40.232 25.96 39.128 26.192 37.816 26.192C36.808 26.192 35.776 26.04 34.72 25.736C33.68 25.432 32.696 24.952 31.768 24.296L33.304 21.584C33.912 22.032 34.608 22.4 35.392 22.688C36.176 22.976 36.88 23.12 37.504 23.12C37.92 23.12 38.336 23.064 38.752 22.952C39.184 22.824 39.536 22.616 39.808 22.328C40.096 22.04 40.24 21.64 40.24 21.128C40.24 20.6 39.984 20.144 39.472 19.76C38.976 19.36 38.376 19.024 37.672 18.752C37.128 18.544 36.568 18.304 35.992 18.032C35.416 17.76 34.872 17.432 34.36 17.048C33.864 16.648 33.456 16.16 33.136 15.584C32.832 14.992 32.68 14.272 32.68 13.424C32.68 12.4 32.904 11.512 33.352 10.76C33.816 10.008 34.464 9.41601 35.296 8.98401C36.128 8.53601 37.088 8.28801 38.176 8.24002C39.6 8.24002 40.752 8.40802 41.632 8.74401C42.528 9.08002 43.328 9.48002 44.032 9.94402L42.712 12.608Z" fill="white"/>
<path d="M52.6242 8.33601C54.8162 8.33601 56.4962 8.88001 57.6642 9.96801C58.8322 11.04 59.4162 12.48 59.4162 14.288C59.4162 15.008 59.3042 15.736 59.0802 16.472C58.8722 17.192 58.5282 17.848 58.0482 18.44C57.5842 19.032 56.9522 19.512 56.1522 19.88C55.3682 20.232 54.4002 20.408 53.2482 20.408H50.7522V26H47.2722V8.33601H52.6242ZM53.2242 17.024C53.9282 17.024 54.4722 16.872 54.8562 16.568C55.2562 16.248 55.5362 15.88 55.6962 15.464C55.8562 15.048 55.9362 14.688 55.9362 14.384C55.9362 14.208 55.9042 13.976 55.8402 13.688C55.7922 13.384 55.6802 13.08 55.5042 12.776C55.3282 12.472 55.0562 12.216 54.6882 12.008C54.3362 11.8 53.8562 11.696 53.2482 11.696H50.7522V17.024H53.2242Z" fill="white"/>
<path d="M58.7333 26L66.7013 7.64001H66.8933L74.8613 26H70.8293L69.4613 22.544H63.6053L62.1653 26H58.7333ZM64.8293 19.616H68.3093L66.6053 15.32L64.8293 19.616Z" fill="white"/>
<path d="M82.7883 8.33601C85.0123 8.33601 86.7163 8.88001 87.9003 9.96801C89.1003 11.04 89.7003 12.48 89.7003 14.288C89.7003 15.296 89.4843 16.288 89.0523 17.264C88.6363 18.24 87.9243 19.016 86.9163 19.592L91.0203 26H86.9643L83.2443 20.384H80.9163V26H77.4363V8.33601H82.7883ZM83.3883 17.024C84.0923 17.024 84.6363 16.88 85.0203 16.592C85.4203 16.288 85.7003 15.936 85.8603 15.536C86.0203 15.12 86.1003 14.744 86.1003 14.408C86.1003 14.216 86.0683 13.976 86.0043 13.688C85.9563 13.384 85.8443 13.08 85.6683 12.776C85.4923 12.472 85.2203 12.216 84.8523 12.008C84.5003 11.8 84.0203 11.696 83.4123 11.696H80.9163V17.024H83.3883Z" fill="white"/>
<path d="M92.3378 8.33601H104.242V11.696H99.9458V26H96.4658V11.696H92.3378V8.33601Z" fill="white"/>
<path d="M104.179 26L112.147 7.64001H112.339L120.307 26H116.275L114.907 22.544H109.051L107.611 26H104.179ZM110.275 19.616H113.755L112.051 15.32L110.275 19.616Z" fill="white"/>
<path d="M138.698 26.72L126.338 15.56L126.41 26H122.882V7.64001H123.026L135.362 18.968L135.29 8.33601H138.794V26.72H138.698Z" fill="white"/>
<path fill-rule="evenodd" clip-rule="evenodd" d="M9.33573 0.0521327C9.31402 0.0808057 9.27706 0.104265 9.2536 0.104265C9.23014 0.104265 9.19318 0.127725 9.17147 0.156398C9.14976 0.185071 9.11009 0.208531 9.08329 0.208531C9.05651 0.208531 9.03458 0.220261 9.03458 0.234597C9.03458 0.248934 9.01265 0.260663 8.98588 0.260663C8.95908 0.260663 8.9194 0.284123 8.89769 0.312796C8.87598 0.341469 8.83631 0.364929 8.80951 0.364929C8.78274 0.364929 8.76081 0.376659 8.76081 0.390995C8.76081 0.405332 8.73888 0.417062 8.7121 0.417062C8.6853 0.417062 8.64563 0.440521 8.62392 0.469194C8.60221 0.497867 8.56254 0.521327 8.53574 0.521327C8.50896 0.521327 8.48703 0.533057 8.48703 0.547393C8.48703 0.56173 8.46239 0.57346 8.43228 0.57346C8.40216 0.57346 8.37752 0.58519 8.37752 0.599526C8.37752 0.613863 8.35288 0.625592 8.32277 0.625592C8.29265 0.625592 8.26801 0.637322 8.26801 0.651659C8.26801 0.665995 8.24337 0.677725 8.21326 0.677725C8.18314 0.677725 8.1585 0.689455 8.1585 0.703791C8.1585 0.718128 8.13657 0.729858 8.1098 0.729858C8.08299 0.729858 8.04332 0.753318 8.02161 0.78199C7.9999 0.810663 7.96023 0.834123 7.93343 0.834123C7.90666 0.834123 7.88473 0.845853 7.88473 0.86019C7.88473 0.874526 7.86009 0.886256 7.82997 0.886256C7.79986 0.886256 7.77522 0.897986 7.77522 0.912322C7.77522 0.926659 7.75058 0.938389 7.72046 0.938389C7.69035 0.938389 7.66571 0.950118 7.66571 0.964455C7.66571 0.978791 7.64107 0.990521 7.61095 0.990521C7.58084 0.990521 7.5562 1.00225 7.5562 1.01659C7.5562 1.03092 7.53156 1.04265 7.50144 1.04265C7.47133 1.04265 7.44669 1.05438 7.44669 1.06872C7.44669 1.08306 7.42476 1.09479 7.39798 1.09479C7.37118 1.09479 7.33151 1.11825 7.3098 1.14692C7.28809 1.17559 7.24842 1.19905 7.22162 1.19905C7.19484 1.19905 7.17291 1.21078 7.17291 1.22512C7.17291 1.23945 7.15098 1.25118 7.12421 1.25118C7.0974 1.25118 7.05773 1.27464 7.03602 1.30332C7.01431 1.33199 6.98023 1.35545 6.9603 1.35545C6.94034 1.35545 6.8938 1.38425 6.85684 1.41944C6.80164 1.47197 6.78963 1.50924 6.78963 1.62797C6.78963 1.70748 6.80195 1.77251 6.817 1.77251C6.83206 1.77251 6.84438 1.8077 6.84438 1.85071C6.84438 1.89372 6.8567 1.92891 6.87176 1.92891C6.88682 1.92891 6.89914 1.9641 6.89914 2.00711C6.89914 2.05012 6.91146 2.08531 6.92651 2.08531C6.94157 2.08531 6.95389 2.13223 6.95389 2.18957C6.95389 2.24692 6.96621 2.29384 6.98127 2.29384C6.99633 2.29384 7.00865 2.32903 7.00865 2.37204C7.00865 2.41505 7.02097 2.45024 7.03602 2.45024C7.05108 2.45024 7.0634 2.49716 7.0634 2.5545C7.0634 2.61185 7.07572 2.65877 7.09078 2.65877C7.10584 2.65877 7.11816 2.69396 7.11816 2.73697C7.11816 2.77998 7.13048 2.81517 7.14553 2.81517C7.16059 2.81517 7.17291 2.85036 7.17291 2.89336C7.17291 2.93637 7.18523 2.97156 7.20029 2.97156C7.21535 2.97156 7.22767 3.00675 7.22767 3.04976C7.22767 3.09277 7.23999 3.12796 7.25504 3.12796C7.2701 3.12796 7.28242 3.17488 7.28242 3.23223C7.28242 3.28957 7.29474 3.33649 7.3098 3.33649C7.32486 3.33649 7.33718 3.37168 7.33718 3.41469C7.33718 3.4577 7.3495 3.49289 7.36455 3.49289C7.37961 3.49289 7.39193 3.53981 7.39193 3.59716C7.39193 3.6545 7.40425 3.70142 7.41931 3.70142C7.43437 3.70142 7.44669 3.73661 7.44669 3.77962C7.44669 3.82263 7.45901 3.85782 7.47406 3.85782C7.48912 3.85782 7.50144 3.90474 7.50144 3.96209C7.50144 4.01943 7.51376 4.06635 7.52882 4.06635C7.54388 4.06635 7.5562 4.10154 7.5562 4.14455C7.5562 4.18756 7.56852 4.22275 7.58357 4.22275C7.59863 4.22275 7.61095 4.25794 7.61095 4.30095C7.61095 4.34396 7.62327 4.37915 7.63833 4.37915C7.65339 4.37915 7.66571 4.42607 7.66571 4.48341C7.66571 4.54076 7.67803 4.58768 7.69308 4.58768C7.70814 4.58768 7.72046 4.6346 7.72046 4.69194C7.72046 4.74929 7.73278 4.79621 7.74784 4.79621C7.7629 4.79621 7.77522 4.8314 7.77522 4.87441C7.77522 4.91742 7.78754 4.95261 7.80259 4.95261C7.81765 4.95261 7.82997 5.01126 7.82997 5.08294C7.82997 5.15462 7.84229 5.21327 7.85735 5.21327C7.87241 5.21327 7.88473 5.27192 7.88473 5.3436C7.88473 5.45655 7.87742 5.47393 7.82997 5.47393C7.79986 5.47393 7.77522 5.48566 7.77522 5.5C7.77522 5.51434 7.73826 5.52607 7.69308 5.52607C7.64791 5.52607 7.61095 5.5378 7.61095 5.55213C7.61095 5.56647 7.57399 5.5782 7.52882 5.5782C7.48365 5.5782 7.44669 5.58993 7.44669 5.60427C7.44669 5.6186 7.40973 5.63033 7.36455 5.63033C7.31938 5.63033 7.28242 5.64206 7.28242 5.6564C7.28242 5.67073 7.24546 5.68246 7.20029 5.68246C7.15512 5.68246 7.11816 5.69419 7.11816 5.70853C7.11816 5.72287 7.0812 5.7346 7.03602 5.7346C6.99085 5.7346 6.95389 5.74633 6.95389 5.76066C6.95389 5.775 6.91693 5.78673 6.87176 5.78673C6.82659 5.78673 6.78963 5.79846 6.78963 5.8128C6.78963 5.82713 6.76499 5.83886 6.73487 5.83886C6.70476 5.83886 6.68012 5.85059 6.68012 5.86493C6.68012 5.87927 6.65548 5.891 6.62536 5.891C6.59524 5.891 6.57061 5.90272 6.57061 5.91706C6.57061 5.9314 6.53365 5.94313 6.48847 5.94313C6.4433 5.94313 6.40634 5.95486 6.40634 5.96919C6.40634 5.98353 6.3817 5.99526 6.35159 5.99526C6.32147 5.99526 6.29683 6.00699 6.29683 6.02133C6.29683 6.03566 6.27219 6.04739 6.24207 6.04739C6.21196 6.04739 6.18732 6.05912 6.18732 6.07346C6.18732 6.0878 6.16268 6.09953 6.13256 6.09953C6.10245 6.09953 6.07781 6.11126 6.07781 6.12559C6.07781 6.13993 6.05317 6.15166 6.02305 6.15166C5.99294 6.15166 5.9683 6.16339 5.9683 6.17772C5.9683 6.19206 5.94637 6.20379 5.9196 6.20379C5.89279 6.20379 5.85312 6.22725 5.83141 6.25592C5.8097 6.2846 5.77003 6.30806 5.74323 6.30806C5.71645 6.30806 5.69452 6.31979 5.69452 6.33412C5.69452 6.34846 5.6726 6.36019 5.64582 6.36019C5.61902 6.36019 5.57935 6.38365 5.55764 6.41232C5.53593 6.441 5.49626 6.46445 5.46945 6.46445C5.44268 6.46445 5.42075 6.47618 5.42075 6.49052C5.42075 6.50486 5.39882 6.51659 5.37204 6.51659C5.34524 6.51659 5.30557 6.54005 5.28386 6.56872C5.26215 6.59739 5.22519 6.62085 5.20173 6.62085C5.17827 6.62085 5.14131 6.64431 5.1196 6.67299C5.09789 6.70166 5.06314 6.72512 5.04239 6.72512C5.02167 6.72512 4.97014 6.76031 4.92795 6.80332C4.88577 6.84633 4.83649 6.88152 4.81844 6.88152C4.8004 6.88152 4.75112 6.91671 4.70893 6.95972C4.66674 7.00272 4.61747 7.03791 4.59942 7.03791C4.58138 7.03791 4.5321 7.0731 4.48991 7.11611C4.44772 7.15912 4.39913 7.19431 4.38194 7.19431C4.36474 7.19431 4.25318 7.28815 4.13401 7.40284C4.01483 7.51754 3.90431 7.61137 3.88838 7.61137C3.85016 7.61137 3.39481 8.04559 3.39481 8.08205C3.39481 8.12389 3.32295 8.18483 3.27356 8.18483C3.2499 8.18483 3.23055 8.203 3.23055 8.22518C3.23055 8.24739 3.14431 8.34652 3.0389 8.4455C2.9335 8.54447 2.84726 8.63865 2.84726 8.65481C2.84726 8.67097 2.79798 8.72926 2.73775 8.78436C2.67752 8.83946 2.62824 8.89835 2.62824 8.91521C2.62824 8.9321 2.59128 8.97879 2.54611 9.01896C2.50094 9.05913 2.46398 9.10604 2.46398 9.12322C2.46398 9.1404 2.42702 9.18732 2.38184 9.22749C2.33667 9.26766 2.29971 9.31458 2.29971 9.33175C2.29971 9.34893 2.26275 9.39585 2.21758 9.43602C2.17241 9.47619 2.13545 9.52524 2.13545 9.54498C2.13545 9.56473 2.11081 9.59781 2.08069 9.61848C2.05058 9.63915 2.02594 9.67692 2.02594 9.70244C2.02594 9.72794 2.01362 9.74881 1.99856 9.74881C1.9835 9.74881 1.97118 9.76969 1.97118 9.79519C1.97118 9.82071 1.94654 9.85848 1.91643 9.87915C1.88631 9.89982 1.86167 9.93501 1.86167 9.95735C1.86167 9.97968 1.83703 10.0149 1.80692 10.0355C1.7768 10.0562 1.75216 10.094 1.75216 10.1195C1.75216 10.145 1.73984 10.1659 1.72478 10.1659C1.70973 10.1659 1.69741 10.1868 1.69741 10.2122C1.69741 10.2378 1.67277 10.2755 1.64265 10.2962C1.61254 10.3169 1.5879 10.3546 1.5879 10.3802C1.5879 10.4057 1.57558 10.4265 1.56052 10.4265C1.54546 10.4265 1.53314 10.45 1.53314 10.4787C1.53314 10.5073 1.52082 10.5308 1.50576 10.5308C1.49071 10.5308 1.47839 10.5543 1.47839 10.5829C1.47839 10.6116 1.46607 10.6351 1.45101 10.6351C1.43595 10.6351 1.42363 10.6559 1.42363 10.6814C1.42363 10.707 1.39899 10.7447 1.36888 10.7654C1.33673 10.7875 1.31412 10.8329 1.31412 10.8754C1.31412 10.9153 1.3018 10.9479 1.28674 10.9479C1.27169 10.9479 1.25937 10.9713 1.25937 11C1.25937 11.0287 1.24705 11.0521 1.23199 11.0521C1.21693 11.0521 1.20461 11.0756 1.20461 11.1043C1.20461 11.1329 1.19229 11.1564 1.17723 11.1564C1.16218 11.1564 1.14986 11.1799 1.14986 11.2085C1.14986 11.2372 1.13754 11.2607 1.12248 11.2607C1.10742 11.2607 1.0951 11.2841 1.0951 11.3128C1.0951 11.3415 1.08278 11.3649 1.06772 11.3649C1.05267 11.3649 1.04035 11.3884 1.04035 11.4171C1.04035 11.4457 1.02803 11.4692 1.01297 11.4692C0.997911 11.4692 0.985591 11.4927 0.985591 11.5213C0.985591 11.55 0.973271 11.5735 0.958213 11.5735C0.943156 11.5735 0.930836 11.6086 0.930836 11.6517C0.930836 11.6947 0.918516 11.7299 0.903458 11.7299C0.888401 11.7299 0.876081 11.7533 0.876081 11.782C0.876081 11.8107 0.863761 11.8341 0.848703 11.8341C0.833646 11.8341 0.821326 11.8693 0.821326 11.9123C0.821326 11.9553 0.809006 11.9905 0.793948 11.9905C0.77889 11.9905 0.766571 12.014 0.766571 12.0427C0.766571 12.0713 0.754251 12.0948 0.739193 12.0948C0.724135 12.0948 0.711816 12.1417 0.711816 12.1991C0.711816 12.2564 0.699496 12.3033 0.684438 12.3033C0.66938 12.3033 0.657061 12.3268 0.657061 12.3554C0.657061 12.3841 0.644741 12.4076 0.629683 12.4076C0.614625 12.4076 0.602305 12.4428 0.602305 12.4858C0.602305 12.5288 0.589986 12.564 0.574928 12.564C0.55987 12.564 0.54755 12.5992 0.54755 12.6422C0.54755 12.6852 0.535231 12.7204 0.520173 12.7204C0.505115 12.7204 0.492795 12.7556 0.492795 12.7986C0.492795 12.8416 0.480476 12.8768 0.465418 12.8768C0.45036 12.8768 0.43804 12.9237 0.43804 12.981C0.43804 13.0384 0.42572 13.0853 0.410663 13.0853C0.395605 13.0853 0.383285 13.1322 0.383285 13.1896C0.383285 13.2469 0.370965 13.2938 0.355908 13.2938C0.34085 13.2938 0.32853 13.3408 0.32853 13.3981C0.32853 13.4554 0.31621 13.5024 0.301153 13.5024C0.286095 13.5024 0.273775 13.561 0.273775 13.6327C0.273775 13.7044 0.261455 13.763 0.246398 13.763C0.23134 13.763 0.21902 13.8217 0.21902 13.8934C0.21902 13.965 0.2067 14.0237 0.191643 14.0237C0.176585 14.0237 0.164265 14.0823 0.164265 14.154C0.164265 14.2257 0.151945 14.2844 0.136888 14.2844C0.121255 14.2844 0.10951 14.3626 0.10951 14.4668C0.10951 14.5711 0.0977651 14.6493 0.0821326 14.6493C0.0658977 14.6493 0.054755 14.7449 0.054755 14.8839C0.054755 15.0229 0.0436124 15.1185 0.0273775 15.1185C0.0114164 15.1185 0 15.2054 0 15.327C0 15.4487 0.0114164 15.5355 0.0273775 15.5355C0.0430101 15.5355 0.054755 15.6137 0.054755 15.718C0.054755 15.8223 0.0665 15.9005 0.0821326 15.9005C0.0971902 15.9005 0.10951 15.9591 0.10951 16.0308C0.10951 16.1025 0.12183 16.1611 0.136888 16.1611C0.151945 16.1611 0.164265 16.1963 0.164265 16.2393C0.164265 16.2823 0.176585 16.3175 0.191643 16.3175C0.2067 16.3175 0.21902 16.3527 0.21902 16.3957C0.21902 16.4387 0.23134 16.4739 0.246398 16.4739C0.261455 16.4739 0.273775 16.5209 0.273775 16.5782C0.273775 16.6355 0.286095 16.6825 0.301153 16.6825C0.31621 16.6825 0.32853 16.7177 0.32853 16.7607C0.32853 16.8037 0.34085 16.8389 0.355908 16.8389C0.370965 16.8389 0.383285 16.8741 0.383285 16.9171C0.383285 16.9601 0.395605 16.9953 0.410663 16.9953C0.42572 16.9953 0.43804 17.0304 0.43804 17.0735C0.43804 17.1165 0.45036 17.1517 0.465418 17.1517C0.480476 17.1517 0.492795 17.1868 0.492795 17.2299C0.492795 17.2729 0.505115 17.3081 0.520173 17.3081C0.535231 17.3081 0.54755 17.355 0.54755 17.4123C0.54755 17.4697 0.55987 17.5166 0.574928 17.5166C0.589986 17.5166 0.602305 17.5518 0.602305 17.5948C0.602305 17.6378 0.614625 17.673 0.629683 17.673C0.644741 17.673 0.657061 17.7082 0.657061 17.7512C0.657061 17.7942 0.66938 17.8294 0.684438 17.8294C0.699496 17.8294 0.711816 17.8763 0.711816 17.9336C0.711816 17.991 0.724135 18.0379 0.739193 18.0379C0.754251 18.0379 0.766571 18.0731 0.766571 18.1161C0.766571 18.1591 0.77889 18.1943 0.793948 18.1943C0.809006 18.1943 0.821326 18.2412 0.821326 18.2986C0.821326 18.3559 0.833646 18.4028 0.848703 18.4028C0.863761 18.4028 0.876081 18.4498 0.876081 18.5071C0.876081 18.5645 0.888401 18.6114 0.903458 18.6114C0.918516 18.6114 0.930836 18.6583 0.930836 18.7156C0.930836 18.773 0.943156 18.8199 0.958213 18.8199C0.973271 18.8199 0.985591 18.8786 0.985591 18.9502C0.985591 19.0219 0.997911 19.0806 1.01297 19.0806C1.02803 19.0806 1.04035 19.1275 1.04035 19.1848C1.04035 19.2422 1.05267 19.2891 1.06772 19.2891C1.08295 19.2891 1.0951 19.3586 1.0951 19.4455C1.0951 19.5324 1.10726 19.6019 1.12248 19.6019C1.13844 19.6019 1.14986 19.6888 1.14986 19.8104C1.14986 19.9321 1.16127 20.019 1.17723 20.019C1.19347 20.019 1.20461 20.1145 1.20461 20.2536C1.20461 20.3926 1.21575 20.4882 1.23199 20.4882C1.24894 20.4882 1.25937 20.6272 1.25937 20.8531C1.25937 21.079 1.2698 21.218 1.28674 21.218C1.3044 21.218 1.31412 21.5047 1.31412 22.0261C1.31412 22.5474 1.3044 22.8341 1.28674 22.8341C1.2698 22.8341 1.25937 22.9731 1.25937 23.1991C1.25937 23.425 1.24894 23.564 1.23199 23.564C1.21677 23.564 1.20461 23.6335 1.20461 23.7204C1.20461 23.8073 1.19246 23.8768 1.17723 23.8768C1.1616 23.8768 1.14986 23.955 1.14986 24.0592C1.14986 24.1635 1.13811 24.2417 1.12248 24.2417C1.10742 24.2417 1.0951 24.3004 1.0951 24.372C1.0951 24.4437 1.08278 24.5024 1.06772 24.5024C1.05267 24.5024 1.04035 24.5493 1.04035 24.6066C1.04035 24.664 1.02803 24.7109 1.01297 24.7109C0.997911 24.7109 0.985591 24.7695 0.985591 24.8412C0.985591 24.9129 0.973271 24.9716 0.958213 24.9716C0.943156 24.9716 0.930836 25.0068 0.930836 25.0498C0.930836 25.0928 0.918516 25.128 0.903458 25.128C0.888401 25.128 0.876081 25.1749 0.876081 25.2322C0.876081 25.2896 0.863761 25.3365 0.848703 25.3365C0.833646 25.3365 0.821326 25.3834 0.821326 25.4408C0.821326 25.4981 0.809006 25.545 0.793948 25.545C0.77889 25.545 0.766571 25.5802 0.766571 25.6232C0.766571 25.6662 0.754251 25.7014 0.739193 25.7014C0.724135 25.7014 0.711816 25.7366 0.711816 25.7796C0.711816 25.8226 0.699496 25.8578 0.684438 25.8578C0.66938 25.8578 0.657061 25.893 0.657061 25.936C0.657061 25.979 0.644741 26.0142 0.629683 26.0142C0.614625 26.0142 0.602305 26.0494 0.602305 26.0924C0.602305 26.1354 0.589986 26.1706 0.574928 26.1706C0.55987 26.1706 0.54755 26.2058 0.54755 26.2488C0.54755 26.2918 0.535231 26.327 0.520173 26.327C0.505115 26.327 0.492795 26.3622 0.492795 26.4052C0.492795 26.4482 0.480476 26.4834 0.465418 26.4834C0.45036 26.4834 0.43804 26.5069 0.43804 26.5355C0.43804 26.5642 0.42572 26.5877 0.410663 26.5877C0.395605 26.5877 0.383285 26.6111 0.383285 26.6398C0.383285 26.6685 0.370965 26.6919 0.355908 26.6919C0.34085 26.6919 0.32853 26.7271 0.32853 26.7701C0.32853 26.8132 0.31621 26.8483 0.301153 26.8483C0.286095 26.8483 0.273775 26.8835 0.273775 26.9265C0.273775 26.9695 0.261455 27.0047 0.246398 27.0047C0.23134 27.0047 0.21902 27.0282 0.21902 27.0569C0.21902 27.0855 0.2067 27.109 0.191643 27.109C0.176585 27.109 0.164265 27.1442 0.164265 27.1872C0.164265 27.2302 0.151945 27.2654 0.136888 27.2654C0.12183 27.2654 0.10951 27.3006 0.10951 27.3436C0.10951 27.3866 0.0971902 27.4218 0.0821326 27.4218C0.0670749 27.4218 0.054755 27.4397 0.054755 27.4616C0.054755 27.5068 0.284042 27.7346 0.329598 27.7346C0.346025 27.7346 0.419451 27.7932 0.492795 27.8649C0.56614 27.9366 0.640059 27.9953 0.657061 27.9953C0.674062 27.9953 0.747981 28.0539 0.821326 28.1256C0.89467 28.1973 0.968589 28.2559 0.985591 28.2559C1.00259 28.2559 1.07651 28.3146 1.14986 28.3863C1.2232 28.4579 1.29712 28.5166 1.31412 28.5166C1.33112 28.5166 1.40504 28.5752 1.47839 28.6469C1.55173 28.7186 1.62565 28.7773 1.64265 28.7773C1.65965 28.7773 1.73357 28.8359 1.80692 28.9076C1.88026 28.9793 1.95418 29.0379 1.97118 29.0379C1.98818 29.0379 2.0621 29.0966 2.13545 29.1682C2.20879 29.2399 2.28287 29.2986 2.30007 29.2986C2.31729 29.2986 2.37872 29.3455 2.4366 29.4028C2.49448 29.4602 2.55577 29.5071 2.57286 29.5071C2.58994 29.5071 2.67645 29.5775 2.76513 29.6635C2.85381 29.7495 2.94015 29.8199 2.95705 29.8199C2.97391 29.8199 3.04769 29.8786 3.12104 29.9502C3.19438 30.0219 3.26847 30.0806 3.28566 30.0806C3.30288 30.0806 3.36431 30.1275 3.42219 30.1848C3.48007 30.2422 3.5415 30.2891 3.55872 30.2891C3.57591 30.2891 3.65 30.3477 3.72334 30.4194C3.79669 30.4911 3.87061 30.5498 3.88761 30.5498C3.90461 30.5498 3.97853 30.6084 4.05187 30.6801C4.12522 30.7518 4.1993 30.8104 4.21649 30.8104C4.23371 30.8104 4.29515 30.8573 4.35303 30.9147C4.4109 30.972 4.47234 31.019 4.48956 31.019C4.50675 31.019 4.58083 31.0776 4.65418 31.1493C4.72752 31.221 4.80131 31.2796 4.81817 31.2796C4.83506 31.2796 4.92141 31.35 5.01009 31.436C5.09876 31.522 5.18511 31.5924 5.202 31.5924C5.21887 31.5924 5.29265 31.6511 5.36599 31.7227C5.43934 31.7944 5.51342 31.8531 5.53062 31.8531C5.54784 31.8531 5.60927 31.9 5.66715 31.9573C5.72502 32.0147 5.78646 32.0616 5.80368 32.0616C5.82087 32.0616 5.89496 32.1203 5.9683 32.1919C6.04164 32.2636 6.11556 32.3223 6.13256 32.3223C6.14957 32.3223 6.22349 32.3809 6.29683 32.4526C6.37017 32.5243 6.44409 32.5829 6.4611 32.5829C6.4781 32.5829 6.55202 32.6416 6.62536 32.7133C6.6987 32.785 6.77303 32.8436 6.79056 32.8436C6.80808 32.8436 6.85796 32.8798 6.90138 32.9241C6.97196 32.996 6.98477 33.0004 7.02187 32.965C7.05699 32.9316 7.0634 32.8144 7.0634 32.2068C7.0634 31.7451 7.0732 31.4882 7.09078 31.4882C7.10893 31.4882 7.11816 29.872 7.11816 26.6919C7.11816 22.1115 7.11597 21.8957 7.06945 21.8957C7.04265 21.8957 7.00298 21.8723 6.98127 21.8436C6.95956 21.8149 6.91989 21.7915 6.89308 21.7915C6.86631 21.7915 6.84438 21.7797 6.84438 21.7654C6.84438 21.7511 6.82245 21.7393 6.79568 21.7393C6.76887 21.7393 6.7292 21.7159 6.70749 21.6872C6.68578 21.6585 6.64882 21.6351 6.62536 21.6351C6.6019 21.6351 6.56494 21.6116 6.54323 21.5829C6.52152 21.5543 6.48185 21.5308 6.45504 21.5308C6.42827 21.5308 6.40634 21.5191 6.40634 21.5047C6.40634 21.4904 6.3817 21.4787 6.35159 21.4787C6.32147 21.4787 6.29683 21.4669 6.29683 21.4526C6.29683 21.4383 6.2749 21.4265 6.24813 21.4265C6.22132 21.4265 6.18165 21.4031 6.15994 21.3744C6.13823 21.3457 6.10127 21.3223 6.07781 21.3223C6.05435 21.3223 6.01739 21.2988 5.99568 21.2701C5.97397 21.2415 5.9343 21.218 5.90749 21.218C5.88072 21.218 5.85879 21.2063 5.85879 21.1919C5.85879 21.1776 5.83686 21.1659 5.81009 21.1659C5.78328 21.1659 5.74361 21.1424 5.7219 21.1137C5.70019 21.0851 5.66052 21.0616 5.63372 21.0616C5.60694 21.0616 5.58501 21.0499 5.58501 21.0355C5.58501 21.0212 5.56309 21.0095 5.53631 21.0095C5.50951 21.0095 5.46984 20.986 5.44813 20.9573C5.42642 20.9287 5.38675 20.9052 5.35994 20.9052C5.33317 20.9052 5.31124 20.8935 5.31124 20.8791C5.31124 20.8648 5.28931 20.8531 5.26253 20.8531C5.23573 20.8531 5.19606 20.8296 5.17435 20.8009C5.15264 20.7723 5.11568 20.7488 5.09222 20.7488C5.06876 20.7488 5.0318 20.7254 5.01009 20.6967C4.98838 20.668 4.94871 20.6445 4.9219 20.6445C4.89513 20.6445 4.8732 20.6328 4.8732 20.6185C4.8732 20.6041 4.85127 20.5924 4.82449 20.5924C4.79769 20.5924 4.75802 20.569 4.73631 20.5403C4.7146 20.5116 4.67493 20.4882 4.64813 20.4882C4.62135 20.4882 4.59942 20.4764 4.59942 20.4621C4.59942 20.4477 4.57749 20.436 4.55072 20.436C4.52392 20.436 4.48425 20.4126 4.46254 20.3839C4.44083 20.3552 4.40116 20.3318 4.37435 20.3318C4.34758 20.3318 4.32565 20.32 4.32565 20.3057C4.32565 20.2914 4.30372 20.2796 4.27694 20.2796C4.25014 20.2796 4.21047 20.2562 4.18876 20.2275C4.16705 20.1988 4.13009 20.1754 4.10663 20.1754C4.08317 20.1754 4.04621 20.1519 4.0245 20.1232C4.00279 20.0945 3.96312 20.0711 3.93631 20.0711C3.90954 20.0711 3.88761 20.0594 3.88761 20.045C3.88761 20.0307 3.86568 20.019 3.8389 20.019C3.8121 20.019 3.77243 19.9955 3.75072 19.9668C3.72901 19.9382 3.69205 19.9147 3.66859 19.9147C3.64513 19.9147 3.60817 19.8912 3.58646 19.8626C3.56474 19.8339 3.52779 19.8104 3.50432 19.8104C3.48086 19.8104 3.4439 19.787 3.42219 19.7583C3.40048 19.7296 3.36352 19.7062 3.34006 19.7062C3.3166 19.7062 3.27964 19.6827 3.25793 19.654C3.23621 19.6254 3.19926 19.6019 3.17579 19.6019C3.15233 19.6019 3.11537 19.5784 3.09366 19.5498C3.07195 19.5211 3.03786 19.4976 3.01793 19.4976C2.95644 19.4976 2.84726 19.3733 2.84726 19.3033C2.84726 19.2668 2.83494 19.237 2.81988 19.237C2.80425 19.237 2.79251 19.1588 2.79251 19.0545C2.79251 18.9502 2.78076 18.872 2.76513 18.872C2.74991 18.872 2.73775 18.8025 2.73775 18.7156C2.73775 18.6288 2.7256 18.5592 2.71037 18.5592C2.69515 18.5592 2.683 18.4897 2.683 18.4028C2.683 18.316 2.67084 18.2464 2.65562 18.2464C2.63999 18.2464 2.62824 18.1682 2.62824 18.064C2.62824 17.9597 2.6165 17.8815 2.60086 17.8815C2.58564 17.8815 2.57349 17.812 2.57349 17.7251C2.57349 17.6382 2.56133 17.5687 2.54611 17.5687C2.53048 17.5687 2.51873 17.4905 2.51873 17.3863C2.51873 17.282 2.50699 17.2038 2.49135 17.2038C2.47572 17.2038 2.46398 17.1256 2.46398 17.0213C2.46398 16.8562 2.46918 16.8389 2.51873 16.8389C2.54885 16.8389 2.57349 16.8506 2.57349 16.8649C2.57349 16.8793 2.59542 16.891 2.62219 16.891C2.64899 16.891 2.68866 16.9145 2.71037 16.9431C2.73209 16.9718 2.77176 16.9953 2.79856 16.9953C2.82533 16.9953 2.84726 17.007 2.84726 17.0213C2.84726 17.0357 2.8719 17.0474 2.90202 17.0474C2.93213 17.0474 2.95677 17.0591 2.95677 17.0735C2.95677 17.0878 2.98141 17.0995 3.01153 17.0995C3.04164 17.0995 3.06628 17.1113 3.06628 17.1256C3.06628 17.1399 3.08821 17.1517 3.11499 17.1517C3.14179 17.1517 3.18146 17.1751 3.20317 17.2038C3.22488 17.2325 3.26455 17.2559 3.29135 17.2559C3.31813 17.2559 3.34006 17.2677 3.34006 17.282C3.34006 17.2963 3.3647 17.3081 3.39481 17.3081C3.42493 17.3081 3.44957 17.3198 3.44957 17.3341C3.44957 17.3485 3.47421 17.3602 3.50432 17.3602C3.53444 17.3602 3.55908 17.3719 3.55908 17.3863C3.55908 17.4006 3.58372 17.4123 3.61383 17.4123C3.64395 17.4123 3.66859 17.4241 3.66859 17.4384C3.66859 17.4527 3.69052 17.4645 3.71729 17.4645C3.74409 17.4645 3.78377 17.4879 3.80548 17.5166C3.82719 17.5453 3.86686 17.5687 3.89366 17.5687C3.92043 17.5687 3.94236 17.5804 3.94236 17.5948C3.94236 17.6091 3.967 17.6209 3.99712 17.6209C4.02723 17.6209 4.05187 17.6326 4.05187 17.6469C4.05187 17.6613 4.07651 17.673 4.10663 17.673C4.13674 17.673 4.16138 17.6847 4.16138 17.6991C4.16138 17.7134 4.18331 17.7251 4.21009 17.7251C4.23689 17.7251 4.27656 17.7486 4.29827 17.7773C4.31998 17.8059 4.35965 17.8294 4.38645 17.8294C4.41323 17.8294 4.43516 17.8411 4.43516 17.8554C4.43516 17.8698 4.4598 17.8815 4.48991 17.8815C4.52003 17.8815 4.54467 17.8932 4.54467 17.9076C4.54467 17.9219 4.56931 17.9336 4.59942 17.9336C4.62954 17.9336 4.65418 17.9454 4.65418 17.9597C4.65418 17.9741 4.67882 17.9858 4.70893 17.9858C4.73905 17.9858 4.76369 17.9975 4.76369 18.0118C4.76369 18.0262 4.78562 18.0379 4.81239 18.0379C4.8392 18.0379 4.87887 18.0614 4.90058 18.09C4.92234 18.1188 4.97146 18.1422 5.01009 18.1422C5.04872 18.1422 5.09783 18.1656 5.1196 18.1943C5.14131 18.223 5.18098 18.2464 5.20778 18.2464C5.23455 18.2464 5.25648 18.2582 5.25648 18.2725C5.25648 18.2868 5.28112 18.2986 5.31124 18.2986C5.34135 18.2986 5.36599 18.3103 5.36599 18.3246C5.36599 18.339 5.39063 18.3507 5.42075 18.3507C5.45086 18.3507 5.4755 18.3624 5.4755 18.3768C5.4755 18.3911 5.49743 18.4028 5.52421 18.4028C5.55101 18.4028 5.59068 18.4263 5.61239 18.455C5.6341 18.4836 5.67377 18.5071 5.70058 18.5071C5.72735 18.5071 5.74928 18.5188 5.74928 18.5332C5.74928 18.5475 5.77392 18.5592 5.80403 18.5592C5.83415 18.5592 5.85879 18.571 5.85879 18.5853C5.85879 18.5996 5.88343 18.6114 5.91354 18.6114C5.94366 18.6114 5.9683 18.6231 5.9683 18.6374C5.9683 18.6518 5.99023 18.6635 6.017 18.6635C6.04381 18.6635 6.08348 18.687 6.10519 18.7156C6.1269 18.7443 6.16657 18.7678 6.19337 18.7678C6.22015 18.7678 6.24207 18.7795 6.24207 18.7938C6.24207 18.8082 6.26671 18.8199 6.29683 18.8199C6.32695 18.8199 6.35159 18.8316 6.35159 18.846C6.35159 18.8603 6.37622 18.872 6.40634 18.872C6.43646 18.872 6.4611 18.8838 6.4611 18.8981C6.4611 18.9124 6.48573 18.9242 6.51585 18.9242C6.54597 18.9242 6.57061 18.9359 6.57061 18.9502C6.57061 18.9646 6.59253 18.9763 6.61931 18.9763C6.64611 18.9763 6.68578 18.9998 6.70749 19.0284C6.7292 19.0571 6.76887 19.0806 6.79568 19.0806C6.82245 19.0806 6.84438 19.0923 6.84438 19.1066C6.84438 19.121 6.86902 19.1327 6.89914 19.1327C6.92925 19.1327 6.95389 19.1444 6.95389 19.1588C6.95389 19.1731 6.97853 19.1848 7.00865 19.1848C7.03876 19.1848 7.0634 19.1966 7.0634 19.2109C7.0634 19.2252 7.08804 19.237 7.11816 19.237C7.14827 19.237 7.17291 19.2487 7.17291 19.263C7.17291 19.2774 7.19484 19.2891 7.22162 19.2891C7.24842 19.2891 7.28809 19.3126 7.3098 19.3412C7.33151 19.3699 7.37118 19.3934 7.39798 19.3934C7.42476 19.3934 7.44669 19.4051 7.44669 19.4194C7.44669 19.4338 7.47133 19.4455 7.50144 19.4455C7.53156 19.4455 7.5562 19.4572 7.5562 19.4716C7.5562 19.4859 7.58084 19.4976 7.61095 19.4976C7.64107 19.4976 7.66571 19.5094 7.66571 19.5237C7.66571 19.538 7.69035 19.5498 7.72046 19.5498C7.75058 19.5498 7.77522 19.5615 7.77522 19.5758C7.77522 19.5902 7.79457 19.6019 7.81823 19.6019C7.87356 19.6019 7.93948 19.6647 7.93948 19.7173C7.93948 19.7399 7.9518 19.7583 7.96686 19.7583C7.9849 19.7583 7.99424 20.4931 7.99424 21.9106C7.99424 24.1769 7.99218 24.1374 8.10944 24.1374C8.12978 24.1374 8.16417 24.1609 8.18588 24.1896C8.20759 24.2182 8.24455 24.2417 8.26801 24.2417C8.29147 24.2417 8.32843 24.2652 8.35014 24.2938C8.37185 24.3225 8.41152 24.346 8.43833 24.346C8.4651 24.346 8.48703 24.3577 8.48703 24.372C8.48703 24.3864 8.50896 24.3981 8.53574 24.3981C8.56254 24.3981 8.60221 24.4216 8.62392 24.4502C8.64563 24.4789 8.6853 24.5024 8.7121 24.5024C8.73888 24.5024 8.76081 24.5141 8.76081 24.5284C8.76081 24.5428 8.78274 24.5545 8.80951 24.5545C8.83631 24.5545 8.87598 24.578 8.89769 24.6066C8.9194 24.6353 8.95908 24.6588 8.98588 24.6588C9.01265 24.6588 9.03458 24.6705 9.03458 24.6848C9.03458 24.6992 9.05922 24.7109 9.08934 24.7109C9.11945 24.7109 9.14409 24.7226 9.14409 24.737C9.14409 24.7513 9.16873 24.763 9.19885 24.763C9.22896 24.763 9.2536 24.7748 9.2536 24.7891C9.2536 24.8034 9.27824 24.8152 9.30836 24.8152C9.33847 24.8152 9.36311 24.8269 9.36311 24.8412C9.36311 24.8561 9.44524 24.8673 9.55476 24.8673C9.66427 24.8673 9.7464 24.8561 9.7464 24.8412C9.7464 24.8269 9.77104 24.8152 9.80115 24.8152C9.83127 24.8152 9.85591 24.8034 9.85591 24.7891C9.85591 24.7748 9.87784 24.763 9.90461 24.763C9.93141 24.763 9.97109 24.7396 9.9928 24.7109C10.0145 24.6822 10.0515 24.6588 10.0749 24.6588C10.0984 24.6588 10.1354 24.6353 10.1571 24.6066C10.1788 24.578 10.2157 24.5545 10.2392 24.5545C10.2627 24.5545 10.2996 24.531 10.3213 24.5024C10.343 24.4737 10.3827 24.4502 10.4095 24.4502C10.4363 24.4502 10.4582 24.4385 10.4582 24.4242C10.4582 24.4098 10.4801 24.3981 10.5069 24.3981C10.5337 24.3981 10.5734 24.3746 10.5951 24.346C10.6168 24.3173 10.6538 24.2938 10.6772 24.2938C10.7007 24.2938 10.7377 24.2704 10.7594 24.2417C10.7811 24.213 10.815 24.1896 10.8348 24.1896C10.8545 24.1896 10.9134 24.1489 10.9656 24.0992L11.0605 24.0089V21.8426C11.0605 19.546 11.0575 19.6019 11.1818 19.6019C11.2054 19.6019 11.2248 19.5902 11.2248 19.5758C11.2248 19.5615 11.2494 19.5498 11.2795 19.5498C11.3097 19.5498 11.3343 19.538 11.3343 19.5237C11.3343 19.5094 11.3685 19.4976 11.4104 19.4976C11.4551 19.4976 11.5027 19.4761 11.5259 19.4455C11.5477 19.4167 11.5968 19.3934 11.6354 19.3934C11.6741 19.3934 11.7232 19.37 11.745 19.3412C11.7667 19.3126 11.8063 19.2891 11.8331 19.2891C11.8599 19.2891 11.8818 19.2774 11.8818 19.263C11.8818 19.2487 11.9065 19.237 11.9366 19.237C11.9667 19.237 11.9914 19.2252 11.9914 19.2109C11.9914 19.1966 12.011 19.1848 12.0351 19.1848C12.0592 19.1848 12.1134 19.1496 12.1556 19.1066C12.1978 19.0636 12.252 19.0284 12.2761 19.0284C12.3622 19.0284 12.3261 18.8997 12.2104 18.7938C12.1501 18.7387 12.1009 18.6801 12.1009 18.6635C12.1009 18.6469 12.0516 18.5883 11.9914 18.5332C11.9311 18.4781 11.8818 18.4196 11.8818 18.4032C11.8818 18.3868 11.8202 18.3163 11.745 18.2464C11.6697 18.1766 11.6081 18.1064 11.6081 18.0905C11.6081 18.0745 11.5218 17.9805 11.4164 17.8815C11.311 17.7825 11.2248 17.689 11.2248 17.6738C11.2248 17.6375 10.8788 17.3081 10.8407 17.3081C10.8246 17.3081 10.7264 17.2259 10.6225 17.1256C10.5185 17.0252 10.4196 16.9431 10.4026 16.9431C10.3857 16.9431 10.3244 16.8962 10.2666 16.8389C10.2087 16.7815 10.1446 16.7346 10.1242 16.7346C10.1037 16.7346 10.0693 16.7111 10.0476 16.6825C10.0258 16.6538 9.99176 16.6303 9.97182 16.6303C9.93689 16.6303 9.80115 16.5173 9.80115 16.4881C9.80115 16.4803 9.82579 16.4739 9.85591 16.4739C9.88602 16.4739 9.91066 16.4857 9.91066 16.5C9.91066 16.5143 9.9353 16.5261 9.96542 16.5261C9.99553 16.5261 10.0202 16.5378 10.0202 16.5521C10.0202 16.5665 10.0448 16.5782 10.0749 16.5782C10.105 16.5782 10.1297 16.5899 10.1297 16.6043C10.1297 16.6186 10.1543 16.6303 10.1844 16.6303C10.2146 16.6303 10.2392 16.6421 10.2392 16.6564C10.2392 16.6707 10.2638 16.6825 10.2939 16.6825C10.3247 16.6825 10.3487 16.6651 10.3487 16.6429C10.3487 16.5913 10.0064 16.2654 9.95225 16.2654C9.92936 16.2654 9.91066 16.2476 9.91066 16.2258C9.91066 16.1743 9.56833 15.8483 9.51421 15.8483C9.49132 15.8483 9.47262 15.8306 9.47262 15.809C9.47262 15.7646 8.75024 15.0664 8.70435 15.0664C8.66567 15.0664 8.59654 14.9999 8.59654 14.9628C8.59654 14.9257 8.47159 14.8057 8.43296 14.8057C8.41692 14.8057 8.18254 14.5945 7.9121 14.3365C7.64167 14.0784 7.40729 13.8673 7.39125 13.8673C7.34687 13.8673 7.22767 13.7447 7.22767 13.699C7.22767 13.6436 7.26265 13.6486 7.3098 13.7109C7.33151 13.7396 7.36847 13.763 7.39193 13.763C7.41539 13.763 7.45235 13.7865 7.47406 13.8152C7.49577 13.8438 7.53273 13.8673 7.5562 13.8673C7.57966 13.8673 7.61662 13.8908 7.63833 13.9194C7.66004 13.9481 7.69478 13.9716 7.71553 13.9716C7.73626 13.9716 7.78778 14.0068 7.82997 14.0498C7.87216 14.0928 7.92368 14.128 7.94441 14.128C7.96516 14.128 7.9999 14.1514 8.02161 14.1801C8.04332 14.2088 8.07779 14.2322 8.09824 14.2322C8.11869 14.2322 8.18276 14.2791 8.24063 14.3365C8.29851 14.3938 8.36036 14.4408 8.37807 14.4408C8.39581 14.4408 8.44484 14.4759 8.48703 14.519C8.52922 14.562 8.5785 14.5972 8.59654 14.5972C8.61458 14.5972 8.66386 14.6323 8.70605 14.6754C8.74824 14.7184 8.79752 14.7536 8.81556 14.7536C8.8336 14.7536 8.88288 14.7887 8.92507 14.8318C8.96726 14.8748 9.01629 14.91 9.03403 14.91C9.05175 14.91 9.11359 14.9569 9.17147 15.0142C9.22935 15.0716 9.29078 15.1185 9.308 15.1185C9.32519 15.1185 9.39928 15.1771 9.47262 15.2488C9.54597 15.3205 9.61967 15.3791 9.63642 15.3791C9.6532 15.3791 9.75196 15.4613 9.85591 15.5616C9.95986 15.662 10.0583 15.7441 10.0747 15.7441C10.091 15.7441 10.2143 15.8496 10.3487 15.9787C10.4831 16.1077 10.6059 16.2133 10.6216 16.2133C10.6591 16.2133 11.9366 17.4299 11.9366 17.4656C11.9366 17.4807 12.0228 17.574 12.1282 17.673C12.2336 17.772 12.3199 17.8661 12.3199 17.8823C12.3199 17.8985 12.3692 17.9567 12.4294 18.0118C12.4896 18.067 12.5389 18.1256 12.5389 18.1422C12.5389 18.1588 12.5882 18.2174 12.6484 18.2725C12.7086 18.3276 12.7579 18.3857 12.7579 18.4017C12.7579 18.4176 12.8006 18.4713 12.8528 18.521C12.9253 18.59 12.9706 18.6114 13.0445 18.6114C13.0977 18.6114 13.1412 18.5996 13.1412 18.5853C13.1412 18.571 13.1659 18.5592 13.196 18.5592C13.2261 18.5592 13.2507 18.5475 13.2507 18.5332C13.2507 18.5188 13.2754 18.5071 13.3055 18.5071C13.3356 18.5071 13.3602 18.4954 13.3602 18.481C13.3602 18.4667 13.3849 18.455 13.415 18.455C13.4451 18.455 13.4697 18.4432 13.4697 18.4289C13.4697 18.4146 13.4944 18.4028 13.5245 18.4028C13.5546 18.4028 13.5793 18.3911 13.5793 18.3768C13.5793 18.3624 13.6012 18.3507 13.628 18.3507C13.6548 18.3507 13.6944 18.3273 13.7161 18.2986C13.7378 18.2699 13.7775 18.2464 13.8043 18.2464C13.8311 18.2464 13.853 18.2347 13.853 18.2204C13.853 18.206 13.8777 18.1943 13.9078 18.1943C13.9379 18.1943 13.9625 18.1826 13.9625 18.1682C13.9625 18.1539 13.9872 18.1422 14.0173 18.1422C14.0474 18.1422 14.072 18.1304 14.072 18.1161C14.072 18.1018 14.0967 18.09 14.1268 18.09C14.1569 18.09 14.1816 18.0783 14.1816 18.064C14.1816 18.0496 14.2035 18.0379 14.2303 18.0379C14.2571 18.0379 14.2967 18.0145 14.3184 17.9858C14.3402 17.9571 14.3798 17.9336 14.4066 17.9336C14.4334 17.9336 14.4553 17.9219 14.4553 17.9076C14.4553 17.8932 14.48 17.8815 14.5101 17.8815C14.5402 17.8815 14.5648 17.8698 14.5648 17.8554C14.5648 17.8411 14.5868 17.8294 14.6135 17.8294C14.6403 17.8294 14.68 17.8059 14.7017 17.7773C14.7234 17.7486 14.7631 17.7251 14.7899 17.7251C14.8167 17.7251 14.8386 17.7134 14.8386 17.6991C14.8386 17.6847 14.8633 17.673 14.8934 17.673C14.9235 17.673 14.9481 17.6613 14.9481 17.6469C14.9481 17.6326 14.9728 17.6209 15.0029 17.6209C15.033 17.6209 15.0576 17.6091 15.0576 17.5948C15.0576 17.5804 15.0823 17.5687 15.1124 17.5687C15.1425 17.5687 15.1671 17.557 15.1671 17.5427C15.1671 17.5283 15.1918 17.5166 15.2219 17.5166C15.252 17.5166 15.2767 17.5049 15.2767 17.4905C15.2767 17.4762 15.2986 17.4645 15.3254 17.4645C15.3522 17.4645 15.3918 17.441 15.4135 17.4123C15.4353 17.3836 15.4749 17.3602 15.5017 17.3602C15.5285 17.3602 15.5504 17.3485 15.5504 17.3341C15.5504 17.3198 15.5751 17.3081 15.6052 17.3081C15.6353 17.3081 15.6599 17.2963 15.6599 17.282C15.6599 17.2677 15.6846 17.2559 15.7147 17.2559C15.7448 17.2559 15.7695 17.2442 15.7695 17.2299C15.7695 17.2155 15.7941 17.2038 15.8242 17.2038C15.8543 17.2038 15.879 17.1921 15.879 17.1777C15.879 17.1634 15.9009 17.1517 15.9277 17.1517C15.9545 17.1517 15.9941 17.1282 16.0159 17.0995C16.039 17.0689 16.0867 17.0474 16.1314 17.0474C16.1732 17.0474 16.2075 17.0357 16.2075 17.0213C16.2075 17.007 16.2294 16.9953 16.2562 16.9953C16.283 16.9953 16.3227 16.9718 16.3444 16.9431C16.3676 16.9125 16.4153 16.891 16.4599 16.891H16.536V17.0995C16.536 17.2212 16.5246 17.3081 16.5086 17.3081C16.4927 17.3081 16.4813 17.3949 16.4813 17.5166C16.4813 17.6382 16.4699 17.7251 16.4539 17.7251C16.4379 17.7251 16.4265 17.812 16.4265 17.9336C16.4265 18.0553 16.4151 18.1422 16.3991 18.1422C16.3841 18.1422 16.3718 18.2008 16.3718 18.2725C16.3718 18.3442 16.3594 18.4028 16.3444 18.4028C16.3287 18.4028 16.317 18.481 16.317 18.5853C16.317 18.6896 16.3053 18.7678 16.2896 18.7678C16.2744 18.7678 16.2622 18.8373 16.2622 18.9242C16.2622 19.011 16.2501 19.0806 16.2349 19.0806C16.2198 19.0806 16.2075 19.1455 16.2075 19.2248C16.2075 19.3546 16.198 19.3781 16.1126 19.4594C16.0604 19.5091 16.0015 19.5498 15.9817 19.5498C15.962 19.5498 15.9281 19.5732 15.9063 19.6019C15.8846 19.6306 15.845 19.654 15.8182 19.654C15.7914 19.654 15.7695 19.6658 15.7695 19.6801C15.7695 19.6944 15.7475 19.7062 15.7207 19.7062C15.6939 19.7062 15.6543 19.7296 15.6326 19.7583C15.6109 19.787 15.5739 19.8104 15.5504 19.8104C15.527 19.8104 15.49 19.8339 15.4683 19.8626C15.4466 19.8912 15.4069 19.9147 15.3801 19.9147C15.3533 19.9147 15.3314 19.9264 15.3314 19.9408C15.3314 19.9551 15.3095 19.9668 15.2827 19.9668C15.2559 19.9668 15.2162 19.9903 15.1945 20.019C15.1728 20.0476 15.1359 20.0711 15.1124 20.0711C15.0889 20.0711 15.052 20.0945 15.0303 20.1232C15.0085 20.1519 14.9689 20.1754 14.9421 20.1754C14.9153 20.1754 14.8934 20.1871 14.8934 20.2014C14.8934 20.2158 14.8714 20.2275 14.8447 20.2275C14.8179 20.2275 14.7782 20.2509 14.7565 20.2796C14.7348 20.3083 14.6978 20.3318 14.6744 20.3318C14.6509 20.3318 14.6139 20.3552 14.5922 20.3839C14.5705 20.4126 14.5361 20.436 14.5158 20.436C14.4502 20.436 14.4006 20.5081 14.4006 20.6036C14.4006 20.6548 14.4129 20.6967 14.428 20.6967C14.443 20.6967 14.4553 20.7201 14.4553 20.7488C14.4553 20.7775 14.4677 20.8009 14.4827 20.8009C14.4978 20.8009 14.5101 20.8361 14.5101 20.8791C14.5101 20.9222 14.5224 20.9573 14.5375 20.9573C14.5525 20.9573 14.5648 20.9808 14.5648 21.0095C14.5648 21.0382 14.5772 21.0616 14.5922 21.0616C14.6073 21.0616 14.6196 21.0851 14.6196 21.1137C14.6196 21.1424 14.6319 21.1659 14.647 21.1659C14.662 21.1659 14.6744 21.2011 14.6744 21.2441C14.6744 21.2871 14.6867 21.3223 14.7017 21.3223C14.7168 21.3223 14.7291 21.3457 14.7291 21.3744C14.7291 21.4031 14.7414 21.4265 14.7565 21.4265C14.7715 21.4265 14.7839 21.45 14.7839 21.4787C14.7839 21.5073 14.7962 21.5308 14.8112 21.5308C14.8263 21.5308 14.8386 21.5543 14.8386 21.5829C14.8386 21.6116 14.8509 21.6351 14.866 21.6351C14.8811 21.6351 14.8934 21.6585 14.8934 21.6872C14.8934 21.7159 14.9057 21.7393 14.9207 21.7393C14.9358 21.7393 14.9481 21.7628 14.9481 21.7915C14.9481 21.8201 14.9604 21.8436 14.9755 21.8436C14.9906 21.8436 15.0029 21.8671 15.0029 21.8957C15.0029 21.9244 15.0152 21.9479 15.0303 21.9479C15.0453 21.9479 15.0576 21.9713 15.0576 22C15.0576 22.0287 15.07 22.0521 15.085 22.0521C15.1001 22.0521 15.1124 22.0756 15.1124 22.1043C15.1124 22.1329 15.1247 22.1564 15.1398 22.1564C15.1548 22.1564 15.1671 22.1773 15.1671 22.2028C15.1671 22.2283 15.1918 22.2661 15.2219 22.2867C15.252 22.3074 15.2767 22.3452 15.2767 22.3707C15.2767 22.4031 15.2978 22.4171 15.347 22.4171C15.4369 22.4171 15.4957 22.4731 15.4957 22.5586C15.4957 22.5954 15.508 22.6256 15.5231 22.6256C15.5381 22.6256 15.5504 22.6608 15.5504 22.7038C15.5504 22.7468 15.5628 22.782 15.5778 22.782C15.5929 22.782 15.6052 22.8289 15.6052 22.8863C15.6052 22.9436 15.6175 22.9905 15.6326 22.9905C15.6476 22.9905 15.6599 23.0374 15.6599 23.0948C15.6599 23.1521 15.6723 23.1991 15.6873 23.1991C15.7024 23.1991 15.7147 23.246 15.7147 23.3033C15.7147 23.3607 15.727 23.4076 15.7421 23.4076C15.7571 23.4076 15.7695 23.4428 15.7695 23.4858C15.7695 23.5288 15.7818 23.564 15.7968 23.564C15.8119 23.564 15.8242 23.6226 15.8242 23.6943C15.8242 23.766 15.8365 23.8246 15.8516 23.8246C15.8666 23.8246 15.879 23.8598 15.879 23.9028C15.879 23.9459 15.8913 23.981 15.9063 23.981C15.9214 23.981 15.9337 24.0397 15.9337 24.1114C15.9337 24.1831 15.946 24.2417 15.9611 24.2417C15.9762 24.2417 15.9885 24.2769 15.9885 24.3199C15.9885 24.3629 16.0008 24.3981 16.0159 24.3981C16.0309 24.3981 16.0432 24.4568 16.0432 24.5284C16.0432 24.6001 16.0555 24.6588 16.0706 24.6588C16.0857 24.6588 16.098 24.694 16.098 24.737C16.098 24.78 16.1103 24.8152 16.1254 24.8152C16.1404 24.8152 16.1527 24.8738 16.1527 24.9455C16.1527 25.0172 16.1651 25.0758 16.1801 25.0758C16.1952 25.0758 16.2075 25.1227 16.2075 25.1801C16.2075 25.2374 16.2198 25.2844 16.2349 25.2844C16.2499 25.2844 16.2622 25.3313 16.2622 25.3886C16.2622 25.446 16.2746 25.4929 16.2896 25.4929C16.3047 25.4929 16.317 25.5398 16.317 25.5972C16.317 25.6545 16.3293 25.7014 16.3444 25.7014C16.3594 25.7014 16.3718 25.7601 16.3718 25.8318C16.3718 25.9034 16.3841 25.9621 16.3991 25.9621C16.4144 25.9621 16.4265 26.0316 16.4265 26.1185C16.4265 26.2045 16.4195 26.2749 16.4109 26.2749C16.3708 26.2749 16.317 26.1938 16.317 26.1334C16.317 26.0965 16.3047 26.0663 16.2896 26.0663C16.2746 26.0663 16.2622 26.0429 16.2622 26.0142C16.2622 25.9855 16.2499 25.9621 16.2349 25.9621C16.2198 25.9621 16.2075 25.9269 16.2075 25.8839C16.2075 25.8409 16.1952 25.8057 16.1801 25.8057C16.1651 25.8057 16.1527 25.7822 16.1527 25.7536C16.1527 25.7249 16.1404 25.7014 16.1254 25.7014C16.1103 25.7014 16.098 25.6662 16.098 25.6232C16.098 25.5802 16.0857 25.545 16.0706 25.545C16.0555 25.545 16.0432 25.5216 16.0432 25.4929C16.0432 25.4642 16.0309 25.4408 16.0159 25.4408C16.0008 25.4408 15.9885 25.4056 15.9885 25.3626C15.9885 25.3195 15.9762 25.2844 15.9611 25.2844C15.946 25.2844 15.9337 25.2492 15.9337 25.2062C15.9337 25.1632 15.9214 25.128 15.9063 25.128C15.8913 25.128 15.879 25.0928 15.879 25.0498C15.879 25.0068 15.8666 24.9716 15.8516 24.9716C15.8365 24.9716 15.8242 24.9481 15.8242 24.9194C15.8242 24.8908 15.8119 24.8673 15.7968 24.8673C15.7818 24.8673 15.7695 24.8321 15.7695 24.7891C15.7695 24.7461 15.7571 24.7109 15.7421 24.7109C15.727 24.7109 15.7147 24.6757 15.7147 24.6327C15.7147 24.5897 15.7024 24.5545 15.6873 24.5545C15.6723 24.5545 15.6599 24.531 15.6599 24.5024C15.6599 24.4737 15.6476 24.4502 15.6326 24.4502C15.6175 24.4502 15.6052 24.415 15.6052 24.372C15.6052 24.329 15.5929 24.2938 15.5778 24.2938C15.5628 24.2938 15.5504 24.2704 15.5504 24.2417C15.5504 24.213 15.5381 24.1896 15.5231 24.1896C15.508 24.1896 15.4957 24.1661 15.4957 24.1374C15.4957 24.1088 15.4834 24.0853 15.4683 24.0853C15.4532 24.0853 15.4409 24.0618 15.4409 24.0332C15.4409 24.0045 15.4286 23.981 15.4135 23.981C15.3985 23.981 15.3862 23.9576 15.3862 23.9289C15.3862 23.9002 15.3738 23.8768 15.3588 23.8768C15.3437 23.8768 15.3314 23.8416 15.3314 23.7986C15.3314 23.7556 15.3191 23.7204 15.304 23.7204C15.289 23.7204 15.2767 23.6969 15.2767 23.6682C15.2767 23.6396 15.2643 23.6161 15.2493 23.6161C15.2342 23.6161 15.2219 23.5927 15.2219 23.564C15.2219 23.5353 15.2096 23.5118 15.1945 23.5118C15.1795 23.5118 15.1671 23.4884 15.1671 23.4597C15.1671 23.431 15.1548 23.4076 15.1398 23.4076C15.1247 23.4076 15.1124 23.3841 15.1124 23.3554C15.1124 23.3268 15.1001 23.3033 15.085 23.3033C15.07 23.3033 15.0576 23.2799 15.0576 23.2512C15.0576 23.2225 15.0453 23.1991 15.0303 23.1991C15.0152 23.1991 15.0029 23.1756 15.0029 23.1469C15.0029 23.1182 14.9906 23.0948 14.9755 23.0948C14.9604 23.0948 14.9481 23.0713 14.9481 23.0427C14.9481 23.014 14.9358 22.9905 14.9207 22.9905C14.9057 22.9905 14.8934 22.9671 14.8934 22.9384C14.8934 22.9097 14.8811 22.8863 14.866 22.8863C14.8509 22.8863 14.8386 22.8628 14.8386 22.8341C14.8386 22.8054 14.8263 22.782 14.8112 22.782C14.7962 22.782 14.7839 22.7585 14.7839 22.7299C14.7839 22.7012 14.7715 22.6777 14.7565 22.6777C14.7414 22.6777 14.7291 22.6543 14.7291 22.6256C14.7291 22.5969 14.7168 22.5735 14.7017 22.5735C14.6867 22.5735 14.6744 22.55 14.6744 22.5213C14.6744 22.4927 14.662 22.4692 14.647 22.4692C14.6319 22.4692 14.6196 22.4457 14.6196 22.4171C14.6196 22.3884 14.6073 22.3649 14.5922 22.3649C14.5772 22.3649 14.5648 22.3415 14.5648 22.3128C14.5648 22.2841 14.5525 22.2607 14.5375 22.2607C14.5224 22.2607 14.5101 22.2372 14.5101 22.2085C14.5101 22.1799 14.4978 22.1564 14.4827 22.1564C14.4677 22.1564 14.4553 22.1329 14.4553 22.1043C14.4553 22.0756 14.443 22.0521 14.428 22.0521C14.4129 22.0521 14.4006 22.0287 14.4006 22C14.4006 21.9713 14.3883 21.9479 14.3732 21.9479C14.3581 21.9479 14.3458 21.9244 14.3458 21.8957C14.3458 21.8671 14.3335 21.8436 14.3184 21.8436C14.3034 21.8436 14.2911 21.8201 14.2911 21.7915C14.2911 21.7628 14.2787 21.7393 14.2637 21.7393C14.2486 21.7393 14.2363 21.7159 14.2363 21.6872C14.2363 21.6585 14.224 21.6351 14.2089 21.6351C14.1939 21.6351 14.1816 21.6142 14.1816 21.5887C14.1816 21.5632 14.1569 21.5254 14.1268 21.5047C14.0967 21.4841 14.072 21.4463 14.072 21.4208C14.072 21.3953 14.0597 21.3744 14.0447 21.3744C14.0296 21.3744 14.0173 21.3509 14.0173 21.3223C14.0173 21.2936 14.005 21.2701 13.9899 21.2701C13.9749 21.2701 13.9625 21.2467 13.9625 21.218C13.9625 21.1893 13.9502 21.1659 13.9352 21.1659C13.9201 21.1659 13.9078 21.1424 13.9078 21.1137C13.9078 21.0851 13.8955 21.0616 13.8804 21.0616C13.8653 21.0616 13.853 21.0432 13.853 21.0207C13.853 20.9106 13.6764 20.8652 13.6066 20.9573C13.5849 20.986 13.5452 21.0095 13.5184 21.0095C13.4917 21.0095 13.4697 21.0212 13.4697 21.0355C13.4697 21.0499 13.4451 21.0616 13.415 21.0616C13.3849 21.0616 13.3602 21.0733 13.3602 21.0877C13.3602 21.102 13.3383 21.1137 13.3115 21.1137C13.2847 21.1137 13.2451 21.1372 13.2233 21.1659C13.2016 21.1945 13.162 21.218 13.1352 21.218C13.1084 21.218 13.0865 21.2297 13.0865 21.2441C13.0865 21.2584 13.0618 21.2701 13.0317 21.2701C13.0016 21.2701 12.9769 21.2819 12.9769 21.2962C12.9769 21.3105 12.955 21.3223 12.9282 21.3223C12.9014 21.3223 12.8618 21.3457 12.8401 21.3744C12.8183 21.4031 12.7814 21.4265 12.7579 21.4265C12.7345 21.4265 12.6975 21.45 12.6758 21.4787C12.6541 21.5073 12.6144 21.5308 12.5876 21.5308C12.5608 21.5308 12.5389 21.5425 12.5389 21.5569C12.5389 21.5712 12.517 21.5829 12.4902 21.5829C12.4634 21.5829 12.4237 21.6064 12.402 21.6351C12.3803 21.6637 12.3406 21.6872 12.3138 21.6872C12.2871 21.6872 12.2651 21.6989 12.2651 21.7133C12.2651 21.7276 12.2432 21.7393 12.2164 21.7393C12.1896 21.7393 12.15 21.7628 12.1282 21.7915C12.1065 21.8201 12.0721 21.8436 12.0518 21.8436C11.9314 21.8436 11.9366 21.5976 11.9366 27.3287C11.9366 30.9184 11.9458 32.7393 11.964 32.7393C11.979 32.7393 11.9914 32.798 11.9914 32.8697C11.9914 32.9772 11.9999 33 12.0401 33C12.0669 33 12.1065 32.9765 12.1282 32.9479C12.15 32.9192 12.1896 32.8957 12.2164 32.8957C12.2469 32.8957 12.2651 32.8762 12.2651 32.8436C12.2651 32.8136 12.2834 32.7915 12.3081 32.7915C12.3576 32.7915 12.4294 32.7305 12.4294 32.6885C12.4294 32.645 12.7237 32.3744 12.771 32.3744C12.7939 32.3744 12.8127 32.3627 12.8127 32.3483C12.8127 32.334 12.8346 32.3223 12.8614 32.3223C12.8882 32.3223 12.9279 32.2988 12.9496 32.2701C12.9713 32.2415 13.0057 32.218 13.0262 32.218C13.0466 32.218 13.1107 32.1711 13.1686 32.1137C13.2265 32.0564 13.2879 32.0095 13.3051 32.0095C13.3223 32.0095 13.3964 31.9508 13.4697 31.8791C13.5431 31.8075 13.617 31.7488 13.634 31.7488C13.651 31.7488 13.7249 31.6902 13.7983 31.6185C13.8716 31.5468 13.9457 31.4882 13.9629 31.4882C13.9801 31.4882 14.0415 31.4412 14.0994 31.3839C14.1573 31.3265 14.2186 31.2796 14.2357 31.2796C14.2528 31.2796 14.3393 31.2092 14.428 31.1232C14.5166 31.0372 14.6031 30.9668 14.6202 30.9668C14.6373 30.9668 14.6986 30.9199 14.7565 30.8626C14.8144 30.8052 14.8758 30.7583 14.893 30.7583C14.9102 30.7583 14.9843 30.6996 15.0576 30.628C15.131 30.5563 15.2045 30.4976 15.221 30.4976C15.2665 30.4976 15.4409 30.3226 15.4409 30.2769C15.4409 30.255 15.4532 30.237 15.4683 30.237C15.4843 30.237 15.4957 30.1501 15.4957 30.0284C15.4957 29.9068 15.4843 29.8199 15.4683 29.8199C15.4531 29.8199 15.4409 29.7504 15.4409 29.6635C15.4409 29.5766 15.4288 29.5071 15.4135 29.5071C15.3985 29.5071 15.3862 29.4485 15.3862 29.3768C15.3862 29.3051 15.3738 29.2464 15.3588 29.2464C15.3437 29.2464 15.3314 29.1878 15.3314 29.1161C15.3314 29.0444 15.3191 28.9858 15.304 28.9858C15.289 28.9858 15.2767 28.9271 15.2767 28.8554C15.2767 28.7838 15.2643 28.7251 15.2493 28.7251C15.2342 28.7251 15.2219 28.6899 15.2219 28.6469C15.2219 28.6039 15.2096 28.5687 15.1945 28.5687C15.1795 28.5687 15.1671 28.5218 15.1671 28.4645C15.1671 28.4071 15.1548 28.3602 15.1398 28.3602C15.1247 28.3602 15.1124 28.325 15.1124 28.282C15.1124 28.239 15.1001 28.2038 15.085 28.2038C15.07 28.2038 15.0576 28.1686 15.0576 28.1256C15.0576 28.0826 15.0453 28.0474 15.0303 28.0474C15.0152 28.0474 15.0029 28.0122 15.0029 27.9692C15.0029 27.9262 14.9906 27.891 14.9755 27.891C14.9604 27.891 14.9481 27.8558 14.9481 27.8128C14.9481 27.7698 14.9358 27.7346 14.9207 27.7346C14.9057 27.7346 14.8934 27.6877 14.8934 27.6303C14.8934 27.573 14.8811 27.5261 14.866 27.5261C14.8509 27.5261 14.8386 27.4909 14.8386 27.4479C14.8386 27.4049 14.8263 27.3697 14.8112 27.3697C14.7962 27.3697 14.7839 27.3345 14.7839 27.2915C14.7839 27.2485 14.7715 27.2133 14.7565 27.2133C14.7414 27.2133 14.7291 27.1781 14.7291 27.1351C14.7291 27.0921 14.7168 27.0569 14.7017 27.0569C14.6867 27.0569 14.6744 27.0217 14.6744 26.9787C14.6744 26.9357 14.662 26.9005 14.647 26.9005C14.6319 26.9005 14.6196 26.8653 14.6196 26.8223C14.6196 26.7793 14.6073 26.7441 14.5922 26.7441C14.5772 26.7441 14.5648 26.7089 14.5648 26.6659C14.5648 26.6229 14.5525 26.5877 14.5375 26.5877C14.5224 26.5877 14.5101 26.5642 14.5101 26.5355C14.5101 26.5069 14.4978 26.4834 14.4827 26.4834C14.4677 26.4834 14.4553 26.4365 14.4553 26.3791C14.4553 26.3218 14.443 26.2749 14.428 26.2749C14.4129 26.2749 14.4006 26.2514 14.4006 26.2227C14.4006 26.1941 14.3883 26.1706 14.3732 26.1706C14.3581 26.1706 14.3458 26.1354 14.3458 26.0924C14.3458 26.0494 14.3335 26.0142 14.3184 26.0142C14.3034 26.0142 14.2911 25.979 14.2911 25.936C14.2911 25.893 14.2787 25.8578 14.2637 25.8578C14.2486 25.8578 14.2363 25.8226 14.2363 25.7796C14.2363 25.7366 14.224 25.7014 14.2089 25.7014C14.1939 25.7014 14.1816 25.6662 14.1816 25.6232C14.1816 25.5802 14.1692 25.545 14.1542 25.545C14.1391 25.545 14.1268 25.5216 14.1268 25.4929C14.1268 25.4642 14.1145 25.4408 14.0994 25.4408C14.0844 25.4408 14.072 25.4173 14.072 25.3886C14.072 25.36 14.0597 25.3365 14.0447 25.3365C14.0296 25.3365 14.0173 25.3013 14.0173 25.2583C14.0173 25.2153 14.005 25.1801 13.9899 25.1801C13.9749 25.1801 13.9625 25.1566 13.9625 25.128C13.9625 25.0993 13.9502 25.0758 13.9352 25.0758C13.9201 25.0758 13.9078 25.0524 13.9078 25.0237C13.9078 24.995 13.8955 24.9716 13.8804 24.9716C13.8653 24.9716 13.853 24.9481 13.853 24.9194C13.853 24.8894 13.8713 24.8673 13.896 24.8673C13.9488 24.8673 14.0173 24.9293 14.0173 24.977C14.0173 24.9964 14.0419 25.0291 14.072 25.0498C14.1022 25.0704 14.1268 25.1082 14.1268 25.1337C14.1268 25.1592 14.1391 25.1801 14.1542 25.1801C14.1692 25.1801 14.1816 25.2036 14.1816 25.2322C14.1816 25.2609 14.1939 25.2844 14.2089 25.2844C14.224 25.2844 14.2363 25.3078 14.2363 25.3365C14.2363 25.3652 14.2486 25.3886 14.2637 25.3886C14.2787 25.3886 14.2911 25.4121 14.2911 25.4408C14.2911 25.4694 14.3034 25.4929 14.3184 25.4929C14.3335 25.4929 14.3458 25.5138 14.3458 25.5393C14.3458 25.5648 14.3705 25.6026 14.4006 25.6232C14.4307 25.6439 14.4553 25.6817 14.4553 25.7072C14.4553 25.7327 14.4677 25.7536 14.4827 25.7536C14.4978 25.7536 14.5101 25.7887 14.5101 25.8318C14.5101 25.8748 14.5224 25.91 14.5375 25.91C14.5525 25.91 14.5648 25.9308 14.5648 25.9563C14.5648 25.9818 14.5895 26.0196 14.6196 26.0403C14.6517 26.0624 14.6744 26.1078 14.6744 26.1503C14.6744 26.1901 14.6867 26.2227 14.7017 26.2227C14.7168 26.2227 14.7291 26.2462 14.7291 26.2749C14.7291 26.3036 14.7414 26.327 14.7565 26.327C14.7715 26.327 14.7839 26.3505 14.7839 26.3791C14.7839 26.4078 14.7962 26.4313 14.8112 26.4313C14.8263 26.4313 14.8386 26.4547 14.8386 26.4834C14.8386 26.5121 14.8509 26.5355 14.866 26.5355C14.8811 26.5355 14.8934 26.5707 14.8934 26.6137C14.8934 26.6568 14.9057 26.6919 14.9207 26.6919C14.9358 26.6919 14.9481 26.7154 14.9481 26.7441C14.9481 26.7727 14.9604 26.7962 14.9755 26.7962C14.9906 26.7962 15.0029 26.8197 15.0029 26.8483C15.0029 26.877 15.0152 26.9005 15.0303 26.9005C15.0453 26.9005 15.0576 26.9474 15.0576 27.0047C15.0576 27.1041 15.0213 27.1458 14.9952 27.0764C14.9881 27.0575 14.9728 27.0535 14.9587 27.067C14.9446 27.0804 14.9488 27.095 14.9687 27.1017C14.9875 27.1081 15.0029 27.1358 15.0029 27.1633C15.0029 27.1908 15.0152 27.2133 15.0303 27.2133C15.0453 27.2133 15.0576 27.2367 15.0576 27.2654C15.0576 27.2941 15.07 27.3175 15.085 27.3175C15.1001 27.3175 15.1124 27.341 15.1124 27.3697C15.1124 27.3983 15.1247 27.4218 15.1398 27.4218C15.1548 27.4218 15.1671 27.4453 15.1671 27.4739C15.1671 27.5026 15.1795 27.5261 15.1945 27.5261C15.2096 27.5261 15.2219 27.5495 15.2219 27.5782C15.2219 27.6069 15.2342 27.6303 15.2493 27.6303C15.2643 27.6303 15.2767 27.6538 15.2767 27.6825C15.2767 27.7111 15.289 27.7346 15.304 27.7346C15.3191 27.7346 15.3314 27.7698 15.3314 27.8128C15.3314 27.8558 15.3437 27.891 15.3588 27.891C15.3738 27.891 15.3862 27.9145 15.3862 27.9431C15.3862 27.9718 15.3985 27.9953 15.4135 27.9953C15.4286 27.9953 15.4409 28.0187 15.4409 28.0474C15.4409 28.0761 15.4532 28.0995 15.4683 28.0995C15.4834 28.0995 15.4957 28.123 15.4957 28.1517C15.4957 28.1803 15.508 28.2038 15.5231 28.2038C15.5381 28.2038 15.5504 28.2273 15.5504 28.2559C15.5504 28.2846 15.5628 28.3081 15.5778 28.3081C15.5929 28.3081 15.6052 28.3432 15.6052 28.3863C15.6052 28.4293 15.6175 28.4645 15.6326 28.4645C15.6476 28.4645 15.6599 28.4879 15.6599 28.5166C15.6599 28.5453 15.6723 28.5687 15.6873 28.5687C15.7024 28.5687 15.7147 28.5922 15.7147 28.6209C15.7147 28.6495 15.727 28.673 15.7421 28.673C15.7571 28.673 15.7695 28.7082 15.7695 28.7512C15.7695 28.7942 15.7818 28.8294 15.7968 28.8294C15.8119 28.8294 15.8242 28.8646 15.8242 28.9076C15.8242 28.9506 15.8365 28.9858 15.8516 28.9858C15.8666 28.9858 15.879 29.021 15.879 29.064C15.879 29.107 15.8913 29.1422 15.9063 29.1422C15.9214 29.1422 15.9337 29.1774 15.9337 29.2204C15.9337 29.2634 15.946 29.2986 15.9611 29.2986C15.9762 29.2986 15.9885 29.322 15.9885 29.3507C15.9885 29.3794 16.0008 29.4028 16.0159 29.4028C16.0309 29.4028 16.0432 29.438 16.0432 29.481C16.0432 29.5241 16.0555 29.5592 16.0706 29.5592C16.0857 29.5592 16.098 29.5777 16.098 29.6002C16.098 29.6504 16.1631 29.7156 16.2132 29.7156C16.2335 29.7156 16.2679 29.6922 16.2896 29.6635C16.3113 29.6348 16.3454 29.6114 16.3654 29.6114C16.3854 29.6114 16.4868 29.5293 16.5908 29.4289C16.6947 29.3286 16.7935 29.2464 16.8103 29.2464C16.827 29.2464 16.9007 29.1878 16.9741 29.1161C17.0474 29.0444 17.1212 28.9858 17.1381 28.9858C17.1549 28.9858 17.2413 28.9154 17.33 28.8294C17.4186 28.7434 17.505 28.673 17.5219 28.673C17.5388 28.673 17.6125 28.6143 17.6859 28.5427C17.7592 28.471 17.8329 28.4123 17.8497 28.4123C17.8665 28.4123 17.9652 28.3302 18.0692 28.2299C18.1731 28.1295 18.2718 28.0474 18.2884 28.0474C18.305 28.0474 18.3912 27.977 18.4798 27.891C18.5685 27.805 18.6544 27.7346 18.6707 27.7346C18.687 27.7346 18.7554 27.6821 18.8228 27.618C18.9215 27.524 18.9452 27.4836 18.9452 27.4094C18.9452 27.3589 18.9329 27.3175 18.9179 27.3175C18.9028 27.3175 18.8905 27.2823 18.8905 27.2393C18.8905 27.1963 18.8782 27.1611 18.8631 27.1611C18.8481 27.1611 18.8357 27.1259 18.8357 27.0829C18.8357 27.0399 18.8234 27.0047 18.8084 27.0047C18.7933 27.0047 18.781 26.9813 18.781 26.9526C18.781 26.9239 18.7687 26.9005 18.7536 26.9005C18.7385 26.9005 18.7262 26.8653 18.7262 26.8223C18.7262 26.7793 18.7139 26.7441 18.6988 26.7441C18.6838 26.7441 18.6715 26.7089 18.6715 26.6659C18.6715 26.6229 18.6591 26.5877 18.6441 26.5877C18.629 26.5877 18.6167 26.5642 18.6167 26.5355C18.6167 26.5069 18.6044 26.4834 18.5893 26.4834C18.5743 26.4834 18.562 26.4482 18.562 26.4052C18.562 26.3622 18.5496 26.327 18.5346 26.327C18.5195 26.327 18.5072 26.2918 18.5072 26.2488C18.5072 26.2058 18.4949 26.1706 18.4798 26.1706C18.4648 26.1706 18.4524 26.1354 18.4524 26.0924C18.4524 26.0494 18.4401 26.0142 18.4251 26.0142C18.41 26.0142 18.3977 25.979 18.3977 25.936C18.3977 25.893 18.3854 25.8578 18.3703 25.8578C18.3553 25.8578 18.3429 25.8226 18.3429 25.7796C18.3429 25.7366 18.3306 25.7014 18.3156 25.7014C18.3005 25.7014 18.2882 25.6662 18.2882 25.6232C18.2882 25.5802 18.2759 25.545 18.2608 25.545C18.2457 25.545 18.2334 25.5098 18.2334 25.4668C18.2334 25.4238 18.2211 25.3886 18.2061 25.3886C18.191 25.3886 18.1787 25.3417 18.1787 25.2844C18.1787 25.227 18.1664 25.1801 18.1513 25.1801C18.1362 25.1801 18.1239 25.1332 18.1239 25.0758C18.1239 25.0185 18.1116 24.9716 18.0965 24.9716C18.0815 24.9716 18.0692 24.9364 18.0692 24.8934C18.0692 24.8504 18.0568 24.8152 18.0418 24.8152C18.0267 24.8152 18.0144 24.7565 18.0144 24.6848C18.0144 24.6132 18.0021 24.5545 17.987 24.5545C17.972 24.5545 17.9597 24.4959 17.9597 24.4242C17.9597 24.3525 17.9473 24.2938 17.9323 24.2938C17.9172 24.2938 17.9049 24.2352 17.9049 24.1635C17.9049 24.0918 17.8926 24.0332 17.8775 24.0332C17.8623 24.0332 17.8501 23.9637 17.8501 23.8768C17.8501 23.7899 17.838 23.7204 17.8228 23.7204C17.8068 23.7204 17.7954 23.6335 17.7954 23.5118C17.7954 23.3902 17.784 23.3033 17.768 23.3033C17.7514 23.3033 17.7406 23.1904 17.7406 23.0166C17.7406 22.8428 17.7298 22.7299 17.7133 22.7299C17.6956 22.7299 17.6859 22.4518 17.6859 21.9479C17.6859 21.4439 17.6956 21.1659 17.7133 21.1659C17.73 21.1659 17.7406 21.0442 17.7406 20.8531C17.7406 20.6619 17.7513 20.5403 17.768 20.5403C17.784 20.5403 17.7954 20.4534 17.7954 20.3318C17.7954 20.2101 17.8068 20.1232 17.8228 20.1232C17.838 20.1232 17.8501 20.0537 17.8501 19.9668C17.8501 19.8799 17.8623 19.8104 17.8775 19.8104C17.8927 19.8104 17.9049 19.7409 17.9049 19.654C17.9049 19.5671 17.9171 19.4976 17.9323 19.4976C17.9473 19.4976 17.9597 19.439 17.9597 19.3673C17.9597 19.2956 17.972 19.237 17.987 19.237C18.0021 19.237 18.0144 19.1783 18.0144 19.1066C18.0144 19.035 18.0267 18.9763 18.0418 18.9763C18.0568 18.9763 18.0692 18.9294 18.0692 18.872C18.0692 18.8147 18.0815 18.7678 18.0965 18.7678C18.1116 18.7678 18.1239 18.7209 18.1239 18.6635C18.1239 18.6062 18.1362 18.5592 18.1513 18.5592C18.1664 18.5592 18.1787 18.5123 18.1787 18.455C18.1787 18.3976 18.191 18.3507 18.2061 18.3507C18.2211 18.3507 18.2334 18.3038 18.2334 18.2464C18.2334 18.1891 18.2457 18.1422 18.2608 18.1422C18.2759 18.1422 18.2882 18.0953 18.2882 18.0379C18.2882 17.9806 18.3005 17.9336 18.3156 17.9336C18.3306 17.9336 18.3429 17.8867 18.3429 17.8294C18.3429 17.772 18.3553 17.7251 18.3703 17.7251C18.3854 17.7251 18.3977 17.6899 18.3977 17.6469C18.3977 17.6039 18.41 17.5687 18.4251 17.5687C18.4401 17.5687 18.4524 17.5335 18.4524 17.4905C18.4524 17.4475 18.4648 17.4123 18.4798 17.4123C18.4949 17.4123 18.5072 17.3771 18.5072 17.3341C18.5072 17.2911 18.5195 17.2559 18.5346 17.2559C18.5496 17.2559 18.562 17.2207 18.562 17.1777C18.562 17.1347 18.5743 17.0995 18.5893 17.0995C18.6044 17.0995 18.6167 17.0526 18.6167 16.9953C18.6167 16.9379 18.629 16.891 18.6441 16.891C18.6591 16.891 18.6715 16.8675 18.6715 16.8389C18.6715 16.8102 18.6838 16.7867 18.6988 16.7867C18.7139 16.7867 18.7262 16.7398 18.7262 16.6825C18.7262 16.6251 18.7385 16.5782 18.7536 16.5782C18.7687 16.5782 18.781 16.543 18.781 16.5C18.781 16.457 18.7933 16.4218 18.8084 16.4218C18.8234 16.4218 18.8357 16.3749 18.8357 16.3175C18.8357 16.2602 18.8481 16.2133 18.8631 16.2133C18.8782 16.2133 18.8905 16.1664 18.8905 16.109C18.8905 16.0517 18.9028 16.0047 18.9179 16.0047C18.9329 16.0047 18.9452 15.9461 18.9452 15.8744C18.9452 15.8027 18.9576 15.7441 18.9726 15.7441C18.9899 15.7441 19 15.5703 19 15.2749C19 14.9795 18.9899 14.8057 18.9726 14.8057C18.9567 14.8057 18.9452 14.7188 18.9452 14.5972C18.9452 14.4755 18.9338 14.3886 18.9179 14.3886C18.9026 14.3886 18.8905 14.3191 18.8905 14.2322C18.8905 14.1453 18.8783 14.0758 18.8631 14.0758C18.8481 14.0758 18.8357 14.0172 18.8357 13.9455C18.8357 13.8738 18.8234 13.8152 18.8084 13.8152C18.7933 13.8152 18.781 13.7682 18.781 13.7109C18.781 13.6536 18.7687 13.6066 18.7536 13.6066C18.7385 13.6066 18.7262 13.5597 18.7262 13.5024C18.7262 13.445 18.7139 13.3981 18.6988 13.3981C18.6838 13.3981 18.6715 13.3512 18.6715 13.2938C18.6715 13.2365 18.6591 13.1896 18.6441 13.1896C18.629 13.1896 18.6167 13.1427 18.6167 13.0853C18.6167 13.028 18.6044 12.981 18.5893 12.981C18.5743 12.981 18.562 12.9459 18.562 12.9028C18.562 12.8598 18.5496 12.8246 18.5346 12.8246C18.5195 12.8246 18.5072 12.7777 18.5072 12.7204C18.5072 12.663 18.4949 12.6161 18.4798 12.6161C18.4648 12.6161 18.4524 12.5809 18.4524 12.5379C18.4524 12.4949 18.4401 12.4597 18.4251 12.4597C18.41 12.4597 18.3977 12.4245 18.3977 12.3815C18.3977 12.3385 18.3854 12.3033 18.3703 12.3033C18.3553 12.3033 18.3429 12.2681 18.3429 12.2251C18.3429 12.1821 18.3306 12.1469 18.3156 12.1469C18.3005 12.1469 18.2882 12.1235 18.2882 12.0948C18.2882 12.0661 18.2759 12.0427 18.2608 12.0427C18.2457 12.0427 18.2334 12.0075 18.2334 11.9645C18.2334 11.9214 18.2211 11.8863 18.2061 11.8863C18.191 11.8863 18.1787 11.8628 18.1787 11.8341C18.1787 11.8054 18.1664 11.782 18.1513 11.782C18.1362 11.782 18.1239 11.7468 18.1239 11.7038C18.1239 11.6608 18.1116 11.6256 18.0965 11.6256C18.0815 11.6256 18.0692 11.6021 18.0692 11.5735C18.0692 11.5448 18.0568 11.5213 18.0418 11.5213C18.0267 11.5213 18.0144 11.4979 18.0144 11.4692C18.0144 11.4405 18.0021 11.4171 17.987 11.4171C17.972 11.4171 17.9597 11.3936 17.9597 11.3649C17.9597 11.3363 17.9473 11.3128 17.9323 11.3128C17.9172 11.3128 17.9049 11.2776 17.9049 11.2346C17.9049 11.1916 17.8926 11.1564 17.8775 11.1564C17.8625 11.1564 17.8501 11.1329 17.8501 11.1043C17.8501 11.0756 17.8378 11.0521 17.8228 11.0521C17.8077 11.0521 17.7954 11.0287 17.7954 11C17.7954 10.9713 17.7831 10.9479 17.768 10.9479C17.753 10.9479 17.7406 10.9244 17.7406 10.8957C17.7406 10.8671 17.7283 10.8436 17.7133 10.8436C17.6982 10.8436 17.6859 10.8201 17.6859 10.7915C17.6859 10.7628 17.6736 10.7393 17.6585 10.7393C17.6434 10.7393 17.6311 10.7159 17.6311 10.6872C17.6311 10.6585 17.6188 10.6351 17.6037 10.6351C17.5887 10.6351 17.5764 10.6142 17.5764 10.5887C17.5764 10.5632 17.5517 10.5254 17.5216 10.5047C17.4915 10.4841 17.4669 10.4463 17.4669 10.4208C17.4669 10.3953 17.4545 10.3744 17.4395 10.3744C17.4244 10.3744 17.4121 10.3535 17.4121 10.328C17.4121 10.3025 17.3875 10.2647 17.3573 10.2441C17.3272 10.2234 17.3026 10.1856 17.3026 10.1601C17.3026 10.1346 17.2903 10.1137 17.2752 10.1137C17.2602 10.1137 17.2478 10.0929 17.2478 10.0674C17.2478 10.0419 17.2232 10.0041 17.1931 9.98341C17.163 9.96274 17.1383 9.92497 17.1383 9.89945C17.1383 9.87396 17.126 9.85308 17.111 9.85308C17.0959 9.85308 17.0836 9.83434 17.0836 9.8114C17.0836 9.78849 17.0466 9.73685 17.0014 9.69668C16.9563 9.65651 16.9193 9.60488 16.9193 9.58196C16.9193 9.55903 16.907 9.54028 16.8919 9.54028C16.8769 9.54028 16.8646 9.52154 16.8646 9.4986C16.8646 9.47569 16.8276 9.42405 16.7824 9.38389C16.7372 9.34372 16.7003 9.2968 16.7003 9.27962C16.7003 9.26244 16.6633 9.21552 16.6182 9.17536C16.573 9.13519 16.536 9.0885 16.536 9.07161C16.536 9.05475 16.4867 8.99586 16.4265 8.94076C16.3663 8.88565 16.317 8.82716 16.317 8.81077C16.317 8.7944 16.2554 8.72386 16.1801 8.65403C16.1048 8.5842 16.0432 8.51452 16.0432 8.49917C16.0432 8.4627 14.9301 7.40284 14.8918 7.40284C14.8756 7.40284 14.8025 7.34419 14.7291 7.27251C14.6558 7.20083 14.5817 7.14218 14.5645 7.14218C14.5473 7.14218 14.4858 7.09526 14.428 7.03791C14.3701 6.98057 14.3082 6.93365 14.2905 6.93365C14.2728 6.93365 14.2237 6.89846 14.1816 6.85545C14.1394 6.81244 14.0878 6.77725 14.0671 6.77725C14.0464 6.77725 14.0116 6.75379 13.9899 6.72512C13.9682 6.69645 13.9312 6.67299 13.9078 6.67299C13.8843 6.67299 13.8474 6.64953 13.8256 6.62085C13.8039 6.59218 13.767 6.56872 13.7435 6.56872C13.7201 6.56872 13.6831 6.54526 13.6614 6.51659C13.6397 6.48791 13.6027 6.46445 13.5793 6.46445C13.5558 6.46445 13.5188 6.441 13.4971 6.41232C13.4754 6.38365 13.4357 6.36019 13.4089 6.36019C13.3822 6.36019 13.3602 6.34846 13.3602 6.33412C13.3602 6.31979 13.3356 6.30806 13.3055 6.30806C13.2754 6.30806 13.2507 6.29633 13.2507 6.28199C13.2507 6.26765 13.2288 6.25592 13.202 6.25592C13.1752 6.25592 13.1355 6.23246 13.1138 6.20379C13.0921 6.17512 13.0525 6.15166 13.0256 6.15166C12.9989 6.15166 12.9769 6.13993 12.9769 6.12559C12.9769 6.11126 12.9523 6.09953 12.9222 6.09953C12.8921 6.09953 12.8674 6.0878 12.8674 6.07346C12.8674 6.05912 12.8332 6.04739 12.7914 6.04739C12.7467 6.04739 12.699 6.02586 12.6758 5.99526C12.6526 5.96466 12.6049 5.94313 12.5602 5.94313C12.5184 5.94313 12.4841 5.9314 12.4841 5.91706C12.4841 5.90272 12.4595 5.891 12.4294 5.891C12.3993 5.891 12.3746 5.87927 12.3746 5.86493C12.3746 5.85059 12.3377 5.83886 12.2925 5.83886C12.2473 5.83886 12.2104 5.82713 12.2104 5.8128C12.2104 5.79846 12.1857 5.78673 12.1556 5.78673C12.1255 5.78673 12.1009 5.775 12.1009 5.76066C12.1009 5.74633 12.0639 5.7346 12.0187 5.7346C11.9736 5.7346 11.9366 5.72287 11.9366 5.70853C11.9366 5.69419 11.8996 5.68246 11.8545 5.68246C11.8093 5.68246 11.7723 5.67073 11.7723 5.6564C11.7723 5.64206 11.7231 5.63033 11.6628 5.63033C11.6026 5.63033 11.5533 5.6186 11.5533 5.60427C11.5533 5.58993 11.5164 5.5782 11.4712 5.5782C11.426 5.5782 11.389 5.56647 11.389 5.55213C11.389 5.5378 11.3574 5.52607 11.3187 5.52607C11.2799 5.52607 11.2306 5.50931 11.2092 5.48882C11.1643 5.44612 11.1568 5.36967 11.1974 5.36967C11.2125 5.36967 11.2248 5.32275 11.2248 5.2654C11.2248 5.20806 11.2371 5.16114 11.2522 5.16114C11.2672 5.16114 11.2795 5.12595 11.2795 5.08294C11.2795 5.03993 11.2919 5.00474 11.3069 5.00474C11.322 5.00474 11.3343 4.95782 11.3343 4.90047C11.3343 4.84313 11.3466 4.79621 11.3617 4.79621C11.3767 4.79621 11.389 4.76102 11.389 4.71801C11.389 4.675 11.4014 4.63981 11.4164 4.63981C11.4315 4.63981 11.4438 4.59289 11.4438 4.53554C11.4438 4.4782 11.4561 4.43128 11.4712 4.43128C11.4862 4.43128 11.4986 4.39609 11.4986 4.35308C11.4986 4.31007 11.5109 4.27488 11.5259 4.27488C11.541 4.27488 11.5533 4.22796 11.5533 4.17062C11.5533 4.11327 11.5656 4.06635 11.5807 4.06635C11.5957 4.06635 11.6081 4.03116 11.6081 3.98815C11.6081 3.94514 11.6204 3.90995 11.6354 3.90995C11.6505 3.90995 11.6628 3.86303 11.6628 3.80569C11.6628 3.74834 11.6751 3.70142 11.6902 3.70142C11.7053 3.70142 11.7176 3.66623 11.7176 3.62322C11.7176 3.58021 11.7299 3.54502 11.745 3.54502C11.76 3.54502 11.7723 3.4981 11.7723 3.44076C11.7723 3.38341 11.7847 3.33649 11.7997 3.33649C11.8148 3.33649 11.8271 3.3013 11.8271 3.25829C11.8271 3.21528 11.8394 3.18009 11.8545 3.18009C11.8695 3.18009 11.8818 3.14491 11.8818 3.1019C11.8818 3.05889 11.8942 3.0237 11.9092 3.0237C11.9243 3.0237 11.9366 2.97678 11.9366 2.91943C11.9366 2.86209 11.9489 2.81517 11.964 2.81517C11.979 2.81517 11.9914 2.76825 11.9914 2.7109C11.9914 2.65355 12.0037 2.60663 12.0187 2.60663C12.0338 2.60663 12.0461 2.57145 12.0461 2.52844C12.0461 2.48543 12.0584 2.45024 12.0735 2.45024C12.0885 2.45024 12.1009 2.41505 12.1009 2.37204C12.1009 2.32903 12.1132 2.29384 12.1282 2.29384C12.1433 2.29384 12.1556 2.25865 12.1556 2.21564C12.1556 2.17263 12.1679 2.13744 12.183 2.13744C12.1981 2.13744 12.2104 2.10225 12.2104 2.05924C12.2104 2.01623 12.2227 1.98104 12.2378 1.98104C12.2528 1.98104 12.2651 1.93412 12.2651 1.87678C12.2651 1.81943 12.2774 1.77251 12.2925 1.77251C12.3076 1.77251 12.3199 1.71941 12.3199 1.65454C12.3199 1.54954 12.3064 1.52368 12.1974 1.41994C12.13 1.35579 12.0588 1.30332 12.0392 1.30332C12.0195 1.30332 11.9857 1.27986 11.964 1.25118C11.9423 1.22251 11.9026 1.19905 11.8758 1.19905C11.849 1.19905 11.8271 1.18732 11.8271 1.17299C11.8271 1.15865 11.8052 1.14692 11.7784 1.14692C11.7516 1.14692 11.7119 1.12346 11.6902 1.09479C11.6685 1.06611 11.6288 1.04265 11.602 1.04265C11.5752 1.04265 11.5533 1.03092 11.5533 1.01659C11.5533 1.00225 11.5287 0.990521 11.4986 0.990521C11.4684 0.990521 11.4438 0.978791 11.4438 0.964455C11.4438 0.950118 11.4192 0.938389 11.389 0.938389C11.3589 0.938389 11.3343 0.926659 11.3343 0.912322C11.3343 0.897986 11.3124 0.886256 11.2856 0.886256C11.2588 0.886256 11.2191 0.862796 11.1974 0.834123C11.1757 0.80545 11.136 0.78199 11.1092 0.78199C11.0824 0.78199 11.0605 0.770261 11.0605 0.755924C11.0605 0.741588 11.0359 0.729858 11.0058 0.729858C10.9756 0.729858 10.951 0.718128 10.951 0.703791C10.951 0.689455 10.9264 0.677725 10.8963 0.677725C10.8661 0.677725 10.8415 0.665995 10.8415 0.651659C10.8415 0.637322 10.8169 0.625592 10.7867 0.625592C10.7566 0.625592 10.732 0.613863 10.732 0.599526C10.732 0.58519 10.7101 0.57346 10.6833 0.57346C10.6565 0.57346 10.6168 0.55 10.5951 0.521327C10.5734 0.492654 10.5337 0.469194 10.5069 0.469194C10.4801 0.469194 10.4582 0.457464 10.4582 0.443128C10.4582 0.428791 10.4336 0.417062 10.4035 0.417062C10.3733 0.417062 10.3487 0.405332 10.3487 0.390995C10.3487 0.376659 10.3241 0.364929 10.2939 0.364929C10.2638 0.364929 10.2392 0.353199 10.2392 0.338863C10.2392 0.324526 10.2146 0.312796 10.1844 0.312796C10.1543 0.312796 10.1297 0.301066 10.1297 0.28673C10.1297 0.272393 10.105 0.260663 10.0749 0.260663C10.0448 0.260663 10.0202 0.248934 10.0202 0.234597C10.0202 0.220261 9.99553 0.208531 9.96542 0.208531C9.9353 0.208531 9.91066 0.196801 9.91066 0.182464C9.91066 0.168128 9.88602 0.156398 9.85591 0.156398C9.82579 0.156398 9.80115 0.144668 9.80115 0.130332C9.80115 0.115995 9.77651 0.104265 9.7464 0.104265C9.71628 0.104265 9.69164 0.0925355 9.69164 0.078199C9.69164 0.0638626 9.667 0.0521327 9.63689 0.0521327C9.60677 0.0521327 9.58213 0.0404028 9.58213 0.0260663C9.58213 0.0117299 9.53556 0 9.47867 0C9.40662 0 9.36322 0.0158223 9.33573 0.0521327ZM9.7464 16.4479C9.7464 16.4622 9.73408 16.4739 9.71902 16.4739C9.70396 16.4739 9.69164 16.4622 9.69164 16.4479C9.69164 16.4335 9.70396 16.4218 9.71902 16.4218C9.73408 16.4218 9.7464 16.4335 9.7464 16.4479Z" fill="#BF0811"/>
</svg>
